<svg xmlns="http://www.w3.org/2000/svg" xmlns:ev="http://www.w3.org/2001/xml-events" xmlns:xlink="http://www.w3.org/1999/xlink" width="3578.74" height="637.795" baseProfile="full" version="1.1"><rect width="3578.74" height="637.795" x="0" y="0" fill="#fff" stroke-width="0" opacity="1"/><g><g id="vlines" stroke="#d3d3d3"><line x1="0" x2="0" y1="70.866" y2="602.362"/><text x="3.543" y="67.323" fill="#000" stroke="#000" stroke-width="0" font-family="Verdana" font-size="12">W 20</text><line x1="35.433" x2="35.433" y1="70.866" y2="602.362"/><text x="38.976" y="67.323" fill="#000" stroke="#000" stroke-width="0" font-family="Verdana" font-size="12">T 21</text><line x1="70.866" x2="70.866" y1="70.866" y2="602.362"/><text x="74.409" y="67.323" fill="#000" stroke="#000" stroke-width="0" font-family="Verdana" font-size="12">F 22</text><line x1="106.299" x2="106.299" y1="70.866" y2="602.362"/><rect width="35.433" height="531.496" x="106.299" y="70.866" fill="gray" stroke="#d3d3d3" stroke-width="1" opacity=".7"/><text x="109.843" y="67.323" fill="#000" stroke="#000" stroke-width="0" font-family="Verdana" font-size="12">S 23</text><line x1="141.732" x2="141.732" y1="70.866" y2="602.362"/><rect width="35.433" height="531.496" x="141.732" y="70.866" fill="gray" stroke="#d3d3d3" stroke-width="1" opacity=".7"/><text x="145.276" y="67.323" fill="#000" stroke="#000" stroke-width="0" font-family="Verdana" font-size="12">S 24</text><line x1="177.165" x2="177.165" y1="70.866" y2="602.362"/><text x="180.709" y="67.323" fill="#000" stroke="#000" stroke-width="0" font-family="Verdana" font-size="12">M 25</text><text x="180.709" y="53.15" fill="#000" stroke="#000" stroke-width="0" font-family="Verdana" font-size="16" font-weight="bold">04</text><line x1="212.598" x2="212.598" y1="70.866" y2="602.362"/><text x="216.142" y="67.323" fill="#000" stroke="#000" stroke-width="0" font-family="Verdana" font-size="12">T 26</text><line x1="248.031" x2="248.031" y1="70.866" y2="602.362"/><rect width="7.087" height="531.496" x="262.205" y="70.866" fill="#76e9ff" stroke="#d3d3d3" stroke-width="0" opacity=".8"/><text x="251.575" y="67.323" fill="#000" stroke="#000" stroke-width="0" font-family="Verdana" font-size="12">W 27</text><line x1="283.465" x2="283.465" y1="70.866" y2="602.362"/><text x="287.008" y="67.323" fill="#000" stroke="#000" stroke-width="0" font-family="Verdana" font-size="12">T 28</text><line x1="318.898" x2="318.898" y1="70.866" y2="602.362"/><text x="322.441" y="67.323" fill="#000" stroke="#000" stroke-width="0" font-family="Verdana" font-size="12">F 29</text><line x1="354.331" x2="354.331" y1="70.866" y2="602.362"/><rect width="35.433" height="531.496" x="354.331" y="70.866" fill="gray" stroke="#d3d3d3" stroke-width="1" opacity=".7"/><text x="357.874" y="67.323" fill="#000" stroke="#000" stroke-width="0" font-family="Verdana" font-size="12">S 30</text><line x1="389.764" x2="389.764" y1="70.866" y2="602.362"/><rect width="35.433" height="531.496" x="389.764" y="70.866" fill="gray" stroke="#d3d3d3" stroke-width="1" opacity=".7"/><text x="393.307" y="67.323" fill="#000" stroke="#000" stroke-width="0" font-family="Verdana" font-size="12">S 31</text><line x1="425.197" x2="425.197" y1="70.866" y2="602.362"/><text x="428.74" y="67.323" fill="#000" stroke="#000" stroke-width="0" font-family="Verdana" font-size="12">M 01</text><text x="428.74" y="35.433" fill="maroon" stroke="maroon" stroke-width="0" font-family="Verdana" font-size="18" font-weight="bold">February</text><text x="428.74" y="53.15" fill="#000" stroke="#000" stroke-width="0" font-family="Verdana" font-size="16" font-weight="bold">05</text><line x1="460.63" x2="460.63" y1="70.866" y2="602.362"/><text x="464.173" y="67.323" fill="#000" stroke="#000" stroke-width="0" font-family="Verdana" font-size="12">T 02</text><line x1="496.063" x2="496.063" y1="70.866" y2="602.362"/><text x="499.606" y="67.323" fill="#000" stroke="#000" stroke-width="0" font-family="Verdana" font-size="12">W 03</text><line x1="531.496" x2="531.496" y1="70.866" y2="602.362"/><text x="535.039" y="67.323" fill="#000" stroke="#000" stroke-width="0" font-family="Verdana" font-size="12">T 04</text><line x1="566.929" x2="566.929" y1="70.866" y2="602.362"/><text x="570.472" y="67.323" fill="#000" stroke="#000" stroke-width="0" font-family="Verdana" font-size="12">F 05</text><line x1="602.362" x2="602.362" y1="70.866" y2="602.362"/><rect width="35.433" height="531.496" x="602.362" y="70.866" fill="gray" stroke="#d3d3d3" stroke-width="1" opacity=".7"/><text x="605.905" y="67.323" fill="#000" stroke="#000" stroke-width="0" font-family="Verdana" font-size="12">S 06</text><line x1="637.795" x2="637.795" y1="70.866" y2="602.362"/><rect width="35.433" height="531.496" x="637.795" y="70.866" fill="gray" stroke="#d3d3d3" stroke-width="1" opacity=".7"/><text x="641.339" y="67.323" fill="#000" stroke="#000" stroke-width="0" font-family="Verdana" font-size="12">S 07</text><line x1="673.228" x2="673.228" y1="70.866" y2="602.362"/><text x="676.772" y="67.323" fill="#000" stroke="#000" stroke-width="0" font-family="Verdana" font-size="12">M 08</text><text x="676.772" y="53.15" fill="#000" stroke="#000" stroke-width="0" font-family="Verdana" font-size="16" font-weight="bold">06</text><line x1="708.661" x2="708.661" y1="70.866" y2="602.362"/><text x="712.205" y="67.323" fill="#000" stroke="#000" stroke-width="0" font-family="Verdana" font-size="12">T 09</text><line x1="744.094" x2="744.094" y1="70.866" y2="602.362"/><text x="747.638" y="67.323" fill="#000" stroke="#000" stroke-width="0" font-family="Verdana" font-size="12">W 10</text><line x1="779.528" x2="779.528" y1="70.866" y2="602.362"/><text x="783.071" y="67.323" fill="#000" stroke="#000" stroke-width="0" font-family="Verdana" font-size="12">T 11</text><line x1="814.961" x2="814.961" y1="70.866" y2="602.362"/><text x="818.504" y="67.323" fill="#000" stroke="#000" stroke-width="0" font-family="Verdana" font-size="12">F 12</text><line x1="850.394" x2="850.394" y1="70.866" y2="602.362"/><rect width="35.433" height="531.496" x="850.394" y="70.866" fill="gray" stroke="#d3d3d3" stroke-width="1" opacity=".7"/><text x="853.937" y="67.323" fill="#000" stroke="#000" stroke-width="0" font-family="Verdana" font-size="12">S 13</text><line x1="885.827" x2="885.827" y1="70.866" y2="602.362"/><rect width="35.433" height="531.496" x="885.827" y="70.866" fill="gray" stroke="#d3d3d3" stroke-width="1" opacity=".7"/><text x="889.37" y="67.323" fill="#000" stroke="#000" stroke-width="0" font-family="Verdana" font-size="12">S 14</text><line x1="921.26" x2="921.26" y1="70.866" y2="602.362"/><text x="924.803" y="67.323" fill="#000" stroke="#000" stroke-width="0" font-family="Verdana" font-size="12">M 15</text><text x="924.803" y="53.15" fill="#000" stroke="#000" stroke-width="0" font-family="Verdana" font-size="16" font-weight="bold">07</text><line x1="956.693" x2="956.693" y1="70.866" y2="602.362"/><text x="960.236" y="67.323" fill="#000" stroke="#000" stroke-width="0" font-family="Verdana" font-size="12">T 16</text><line x1="992.126" x2="992.126" y1="70.866" y2="602.362"/><text x="995.669" y="67.323" fill="#000" stroke="#000" stroke-width="0" font-family="Verdana" font-size="12">W 17</text><line x1="1027.559" x2="1027.559" y1="70.866" y2="602.362"/><text x="1031.102" y="67.323" fill="#000" stroke="#000" stroke-width="0" font-family="Verdana" font-size="12">T 18</text><line x1="1062.992" x2="1062.992" y1="70.866" y2="602.362"/><text x="1066.535" y="67.323" fill="#000" stroke="#000" stroke-width="0" font-family="Verdana" font-size="12">F 19</text><line x1="1098.425" x2="1098.425" y1="70.866" y2="602.362"/><rect width="35.433" height="531.496" x="1098.425" y="70.866" fill="gray" stroke="#d3d3d3" stroke-width="1" opacity=".7"/><text x="1101.968" y="67.323" fill="#000" stroke="#000" stroke-width="0" font-family="Verdana" font-size="12">S 20</text><line x1="1133.858" x2="1133.858" y1="70.866" y2="602.362"/><rect width="35.433" height="531.496" x="1133.858" y="70.866" fill="gray" stroke="#d3d3d3" stroke-width="1" opacity=".7"/><text x="1137.402" y="67.323" fill="#000" stroke="#000" stroke-width="0" font-family="Verdana" font-size="12">S 21</text><line x1="1169.291" x2="1169.291" y1="70.866" y2="602.362"/><text x="1172.835" y="67.323" fill="#000" stroke="#000" stroke-width="0" font-family="Verdana" font-size="12">M 22</text><text x="1172.835" y="53.15" fill="#000" stroke="#000" stroke-width="0" font-family="Verdana" font-size="16" font-weight="bold">08</text><line x1="1204.724" x2="1204.724" y1="70.866" y2="602.362"/><text x="1208.268" y="67.323" fill="#000" stroke="#000" stroke-width="0" font-family="Verdana" font-size="12">T 23</text><line x1="1240.157" x2="1240.157" y1="70.866" y2="602.362"/><text x="1243.701" y="67.323" fill="#000" stroke="#000" stroke-width="0" font-family="Verdana" font-size="12">W 24</text><line x1="1275.591" x2="1275.591" y1="70.866" y2="602.362"/><text x="1279.134" y="67.323" fill="#000" stroke="#000" stroke-width="0" font-family="Verdana" font-size="12">T 25</text><line x1="1311.024" x2="1311.024" y1="70.866" y2="602.362"/><text x="1314.567" y="67.323" fill="#000" stroke="#000" stroke-width="0" font-family="Verdana" font-size="12">F 26</text><line x1="1346.457" x2="1346.457" y1="70.866" y2="602.362"/><rect width="35.433" height="531.496" x="1346.457" y="70.866" fill="gray" stroke="#d3d3d3" stroke-width="1" opacity=".7"/><text x="1350" y="67.323" fill="#000" stroke="#000" stroke-width="0" font-family="Verdana" font-size="12">S 27</text><line x1="1381.89" x2="1381.89" y1="70.866" y2="602.362"/><rect width="35.433" height="531.496" x="1381.89" y="70.866" fill="gray" stroke="#d3d3d3" stroke-width="1" opacity=".7"/><text x="1385.433" y="67.323" fill="#000" stroke="#000" stroke-width="0" font-family="Verdana" font-size="12">S 28</text><line x1="1417.323" x2="1417.323" y1="70.866" y2="602.362"/><text x="1420.866" y="67.323" fill="#000" stroke="#000" stroke-width="0" font-family="Verdana" font-size="12">M 01</text><text x="1420.866" y="35.433" fill="maroon" stroke="maroon" stroke-width="0" font-family="Verdana" font-size="18" font-weight="bold">March</text><text x="1420.866" y="53.15" fill="#000" stroke="#000" stroke-width="0" font-family="Verdana" font-size="16" font-weight="bold">09</text><line x1="1452.756" x2="1452.756" y1="70.866" y2="602.362"/><text x="1456.299" y="67.323" fill="#000" stroke="#000" stroke-width="0" font-family="Verdana" font-size="12">T 02</text><line x1="1488.189" x2="1488.189" y1="70.866" y2="602.362"/><text x="1491.732" y="67.323" fill="#000" stroke="#000" stroke-width="0" font-family="Verdana" font-size="12">W 03</text><line x1="1523.622" x2="1523.622" y1="70.866" y2="602.362"/><text x="1527.165" y="67.323" fill="#000" stroke="#000" stroke-width="0" font-family="Verdana" font-size="12">T 04</text><line x1="1559.055" x2="1559.055" y1="70.866" y2="602.362"/><text x="1562.598" y="67.323" fill="#000" stroke="#000" stroke-width="0" font-family="Verdana" font-size="12">F 05</text><line x1="1594.488" x2="1594.488" y1="70.866" y2="602.362"/><rect width="35.433" height="531.496" x="1594.488" y="70.866" fill="gray" stroke="#d3d3d3" stroke-width="1" opacity=".7"/><text x="1598.031" y="67.323" fill="#000" stroke="#000" stroke-width="0" font-family="Verdana" font-size="12">S 06</text><line x1="1629.921" x2="1629.921" y1="70.866" y2="602.362"/><rect width="35.433" height="531.496" x="1629.921" y="70.866" fill="gray" stroke="#d3d3d3" stroke-width="1" opacity=".7"/><text x="1633.465" y="67.323" fill="#000" stroke="#000" stroke-width="0" font-family="Verdana" font-size="12">S 07</text><line x1="1665.354" x2="1665.354" y1="70.866" y2="602.362"/><text x="1668.898" y="67.323" fill="#000" stroke="#000" stroke-width="0" font-family="Verdana" font-size="12">M 08</text><text x="1668.898" y="53.15" fill="#000" stroke="#000" stroke-width="0" font-family="Verdana" font-size="16" font-weight="bold">10</text><line x1="1700.787" x2="1700.787" y1="70.866" y2="602.362"/><text x="1704.331" y="67.323" fill="#000" stroke="#000" stroke-width="0" font-family="Verdana" font-size="12">T 09</text><line x1="1736.22" x2="1736.22" y1="70.866" y2="602.362"/><text x="1739.764" y="67.323" fill="#000" stroke="#000" stroke-width="0" font-family="Verdana" font-size="12">W 10</text><line x1="1771.654" x2="1771.654" y1="70.866" y2="602.362"/><text x="1775.197" y="67.323" fill="#000" stroke="#000" stroke-width="0" font-family="Verdana" font-size="12">T 11</text><line x1="1807.087" x2="1807.087" y1="70.866" y2="602.362"/><text x="1810.63" y="67.323" fill="#000" stroke="#000" stroke-width="0" font-family="Verdana" font-size="12">F 12</text><line x1="1842.52" x2="1842.52" y1="70.866" y2="602.362"/><rect width="35.433" height="531.496" x="1842.52" y="70.866" fill="gray" stroke="#d3d3d3" stroke-width="1" opacity=".7"/><text x="1846.063" y="67.323" fill="#000" stroke="#000" stroke-width="0" font-family="Verdana" font-size="12">S 13</text><line x1="1877.953" x2="1877.953" y1="70.866" y2="602.362"/><rect width="35.433" height="531.496" x="1877.953" y="70.866" fill="gray" stroke="#d3d3d3" stroke-width="1" opacity=".7"/><text x="1881.496" y="67.323" fill="#000" stroke="#000" stroke-width="0" font-family="Verdana" font-size="12">S 14</text><line x1="1913.386" x2="1913.386" y1="70.866" y2="602.362"/><rect width="35.433" height="531.496" x="1913.386" y="70.866" fill="gray" stroke="#d3d3d3" stroke-width="1" opacity=".7"/><text x="1916.929" y="67.323" fill="#000" stroke="#000" stroke-width="0" font-family="Verdana" font-size="12">M 15</text><text x="1916.929" y="53.15" fill="#000" stroke="#000" stroke-width="0" font-family="Verdana" font-size="16" font-weight="bold">11</text><line x1="1948.819" x2="1948.819" y1="70.866" y2="602.362"/><rect width="35.433" height="531.496" x="1948.819" y="70.866" fill="gray" stroke="#d3d3d3" stroke-width="1" opacity=".7"/><text x="1952.362" y="67.323" fill="#000" stroke="#000" stroke-width="0" font-family="Verdana" font-size="12">T 16</text><line x1="1984.252" x2="1984.252" y1="70.866" y2="602.362"/><rect width="35.433" height="531.496" x="1984.252" y="70.866" fill="gray" stroke="#d3d3d3" stroke-width="1" opacity=".7"/><text x="1987.795" y="67.323" fill="#000" stroke="#000" stroke-width="0" font-family="Verdana" font-size="12">W 17</text><line x1="2019.685" x2="2019.685" y1="70.866" y2="602.362"/><rect width="35.433" height="531.496" x="2019.685" y="70.866" fill="gray" stroke="#d3d3d3" stroke-width="1" opacity=".7"/><text x="2023.228" y="67.323" fill="#000" stroke="#000" stroke-width="0" font-family="Verdana" font-size="12">T 18</text><line x1="2055.118" x2="2055.118" y1="70.866" y2="602.362"/><rect width="35.433" height="531.496" x="2055.118" y="70.866" fill="gray" stroke="#d3d3d3" stroke-width="1" opacity=".7"/><text x="2058.661" y="67.323" fill="#000" stroke="#000" stroke-width="0" font-family="Verdana" font-size="12">F 19</text><line x1="2090.551" x2="2090.551" y1="70.866" y2="602.362"/><rect width="35.433" height="531.496" x="2090.551" y="70.866" fill="gray" stroke="#d3d3d3" stroke-width="1" opacity=".7"/><text x="2094.094" y="67.323" fill="#000" stroke="#000" stroke-width="0" font-family="Verdana" font-size="12">S 20</text><line x1="2125.984" x2="2125.984" y1="70.866" y2="602.362"/><rect width="35.433" height="531.496" x="2125.984" y="70.866" fill="gray" stroke="#d3d3d3" stroke-width="1" opacity=".7"/><text x="2129.528" y="67.323" fill="#000" stroke="#000" stroke-width="0" font-family="Verdana" font-size="12">S 21</text><line x1="2161.417" x2="2161.417" y1="70.866" y2="602.362"/><text x="2164.961" y="67.323" fill="#000" stroke="#000" stroke-width="0" font-family="Verdana" font-size="12">M 22</text><text x="2164.961" y="53.15" fill="#000" stroke="#000" stroke-width="0" font-family="Verdana" font-size="16" font-weight="bold">12</text><line x1="2196.85" x2="2196.85" y1="70.866" y2="602.362"/><text x="2200.394" y="67.323" fill="#000" stroke="#000" stroke-width="0" font-family="Verdana" font-size="12">T 23</text><line x1="2232.283" x2="2232.283" y1="70.866" y2="602.362"/><text x="2235.827" y="67.323" fill="#000" stroke="#000" stroke-width="0" font-family="Verdana" font-size="12">W 24</text><line x1="2267.716" x2="2267.716" y1="70.866" y2="602.362"/><text x="2271.26" y="67.323" fill="#000" stroke="#000" stroke-width="0" font-family="Verdana" font-size="12">T 25</text><line x1="2303.15" x2="2303.15" y1="70.866" y2="602.362"/><text x="2306.693" y="67.323" fill="#000" stroke="#000" stroke-width="0" font-family="Verdana" font-size="12">F 26</text><line x1="2338.583" x2="2338.583" y1="70.866" y2="602.362"/><rect width="35.433" height="531.496" x="2338.583" y="70.866" fill="gray" stroke="#d3d3d3" stroke-width="1" opacity=".7"/><text x="2342.126" y="67.323" fill="#000" stroke="#000" stroke-width="0" font-family="Verdana" font-size="12">S 27</text><line x1="2374.016" x2="2374.016" y1="70.866" y2="602.362"/><rect width="35.433" height="531.496" x="2374.016" y="70.866" fill="gray" stroke="#d3d3d3" stroke-width="1" opacity=".7"/><text x="2377.559" y="67.323" fill="#000" stroke="#000" stroke-width="0" font-family="Verdana" font-size="12">S 28</text><line x1="2409.449" x2="2409.449" y1="70.866" y2="602.362"/><text x="2412.992" y="67.323" fill="#000" stroke="#000" stroke-width="0" font-family="Verdana" font-size="12">M 29</text><text x="2412.992" y="53.15" fill="#000" stroke="#000" stroke-width="0" font-family="Verdana" font-size="16" font-weight="bold">13</text><line x1="2444.882" x2="2444.882" y1="70.866" y2="602.362"/><text x="2448.425" y="67.323" fill="#000" stroke="#000" stroke-width="0" font-family="Verdana" font-size="12">T 30</text><line x1="2480.315" x2="2480.315" y1="70.866" y2="602.362"/><text x="2483.858" y="67.323" fill="#000" stroke="#000" stroke-width="0" font-family="Verdana" font-size="12">W 31</text><line x1="2515.748" x2="2515.748" y1="70.866" y2="602.362"/><text x="2519.291" y="67.323" fill="#000" stroke="#000" stroke-width="0" font-family="Verdana" font-size="12">T 01</text><text x="2519.291" y="35.433" fill="maroon" stroke="maroon" stroke-width="0" font-family="Verdana" font-size="18" font-weight="bold">April</text><line x1="2551.181" x2="2551.181" y1="70.866" y2="602.362"/><text x="2554.724" y="67.323" fill="#000" stroke="#000" stroke-width="0" font-family="Verdana" font-size="12">F 02</text><line x1="2586.614" x2="2586.614" y1="70.866" y2="602.362"/><rect width="35.433" height="531.496" x="2586.614" y="70.866" fill="gray" stroke="#d3d3d3" stroke-width="1" opacity=".7"/><text x="2590.157" y="67.323" fill="#000" stroke="#000" stroke-width="0" font-family="Verdana" font-size="12">S 03</text><line x1="2622.047" x2="2622.047" y1="70.866" y2="602.362"/><rect width="35.433" height="531.496" x="2622.047" y="70.866" fill="gray" stroke="#d3d3d3" stroke-width="1" opacity=".7"/><text x="2625.59" y="67.323" fill="#000" stroke="#000" stroke-width="0" font-family="Verdana" font-size="12">S 04</text><line x1="2657.48" x2="2657.48" y1="70.866" y2="602.362"/><text x="2661.024" y="67.323" fill="#000" stroke="#000" stroke-width="0" font-family="Verdana" font-size="12">M 05</text><text x="2661.024" y="53.15" fill="#000" stroke="#000" stroke-width="0" font-family="Verdana" font-size="16" font-weight="bold">14</text><line x1="2692.913" x2="2692.913" y1="70.866" y2="602.362"/><text x="2696.457" y="67.323" fill="#000" stroke="#000" stroke-width="0" font-family="Verdana" font-size="12">T 06</text><line x1="2728.346" x2="2728.346" y1="70.866" y2="602.362"/><text x="2731.89" y="67.323" fill="#000" stroke="#000" stroke-width="0" font-family="Verdana" font-size="12">W 07</text><line x1="2763.779" x2="2763.779" y1="70.866" y2="602.362"/><text x="2767.323" y="67.323" fill="#000" stroke="#000" stroke-width="0" font-family="Verdana" font-size="12">T 08</text><line x1="2799.213" x2="2799.213" y1="70.866" y2="602.362"/><text x="2802.756" y="67.323" fill="#000" stroke="#000" stroke-width="0" font-family="Verdana" font-size="12">F 09</text><line x1="2834.646" x2="2834.646" y1="70.866" y2="602.362"/><rect width="35.433" height="531.496" x="2834.646" y="70.866" fill="gray" stroke="#d3d3d3" stroke-width="1" opacity=".7"/><text x="2838.189" y="67.323" fill="#000" stroke="#000" stroke-width="0" font-family="Verdana" font-size="12">S 10</text><line x1="2870.079" x2="2870.079" y1="70.866" y2="602.362"/><rect width="35.433" height="531.496" x="2870.079" y="70.866" fill="gray" stroke="#d3d3d3" stroke-width="1" opacity=".7"/><text x="2873.622" y="67.323" fill="#000" stroke="#000" stroke-width="0" font-family="Verdana" font-size="12">S 11</text><line x1="2905.512" x2="2905.512" y1="70.866" y2="602.362"/><text x="2909.055" y="67.323" fill="#000" stroke="#000" stroke-width="0" font-family="Verdana" font-size="12">M 12</text><text x="2909.055" y="53.15" fill="#000" stroke="#000" stroke-width="0" font-family="Verdana" font-size="16" font-weight="bold">15</text><line x1="2940.945" x2="2940.945" y1="70.866" y2="602.362"/><text x="2944.488" y="67.323" fill="#000" stroke="#000" stroke-width="0" font-family="Verdana" font-size="12">T 13</text><line x1="2976.378" x2="2976.378" y1="70.866" y2="602.362"/><text x="2979.921" y="67.323" fill="#000" stroke="#000" stroke-width="0" font-family="Verdana" font-size="12">W 14</text><line x1="3011.811" x2="3011.811" y1="70.866" y2="602.362"/><rect width="35.433" height="531.496" x="3011.811" y="70.866" fill="gray" stroke="#d3d3d3" stroke-width="1" opacity=".7"/><text x="3015.354" y="67.323" fill="#000" stroke="#000" stroke-width="0" font-family="Verdana" font-size="12">T 15</text><line x1="3047.244" x2="3047.244" y1="70.866" y2="602.362"/><rect width="35.433" height="531.496" x="3047.244" y="70.866" fill="gray" stroke="#d3d3d3" stroke-width="1" opacity=".7"/><text x="3050.787" y="67.323" fill="#000" stroke="#000" stroke-width="0" font-family="Verdana" font-size="12">F 16</text><line x1="3082.677" x2="3082.677" y1="70.866" y2="602.362"/><rect width="35.433" height="531.496" x="3082.677" y="70.866" fill="gray" stroke="#d3d3d3" stroke-width="1" opacity=".7"/><text x="3086.22" y="67.323" fill="#000" stroke="#000" stroke-width="0" font-family="Verdana" font-size="12">S 17</text><line x1="3118.11" x2="3118.11" y1="70.866" y2="602.362"/><rect width="35.433" height="531.496" x="3118.11" y="70.866" fill="gray" stroke="#d3d3d3" stroke-width="1" opacity=".7"/><text x="3121.653" y="67.323" fill="#000" stroke="#000" stroke-width="0" font-family="Verdana" font-size="12">S 18</text><line x1="3153.543" x2="3153.543" y1="70.866" y2="602.362"/><rect width="35.433" height="531.496" x="3153.543" y="70.866" fill="gray" stroke="#d3d3d3" stroke-width="1" opacity=".7"/><text x="3157.087" y="67.323" fill="#000" stroke="#000" stroke-width="0" font-family="Verdana" font-size="12">M 19</text><text x="3157.087" y="53.15" fill="#000" stroke="#000" stroke-width="0" font-family="Verdana" font-size="16" font-weight="bold">16</text><line x1="3188.976" x2="3188.976" y1="70.866" y2="602.362"/><rect width="35.433" height="531.496" x="3188.976" y="70.866" fill="gray" stroke="#d3d3d3" stroke-width="1" opacity=".7"/><text x="3192.52" y="67.323" fill="#000" stroke="#000" stroke-width="0" font-family="Verdana" font-size="12">T 20</text><line x1="3224.409" x2="3224.409" y1="70.866" y2="602.362"/><text x="3227.953" y="67.323" fill="#000" stroke="#000" stroke-width="0" font-family="Verdana" font-size="12">W 21</text><line x1="3259.842" x2="3259.842" y1="70.866" y2="602.362"/><text x="3263.386" y="67.323" fill="#000" stroke="#000" stroke-width="0" font-family="Verdana" font-size="12">T 22</text><line x1="3295.276" x2="3295.276" y1="70.866" y2="602.362"/><text x="3298.819" y="67.323" fill="#000" stroke="#000" stroke-width="0" font-family="Verdana" font-size="12">F 23</text><line x1="3330.709" x2="3330.709" y1="70.866" y2="602.362"/><rect width="35.433" height="531.496" x="3330.709" y="70.866" fill="gray" stroke="#d3d3d3" stroke-width="1" opacity=".7"/><text x="3334.252" y="67.323" fill="#000" stroke="#000" stroke-width="0" font-family="Verdana" font-size="12">S 24</text><line x1="3366.142" x2="3366.142" y1="70.866" y2="602.362"/><rect width="35.433" height="531.496" x="3366.142" y="70.866" fill="gray" stroke="#d3d3d3" stroke-width="1" opacity=".7"/><text x="3369.685" y="67.323" fill="#000" stroke="#000" stroke-width="0" font-family="Verdana" font-size="12">S 25</text><line x1="3401.575" x2="3401.575" y1="70.866" y2="602.362"/><text x="3405.118" y="67.323" fill="#000" stroke="#000" stroke-width="0" font-family="Verdana" font-size="12">M 26</text><text x="3405.118" y="53.15" fill="#000" stroke="#000" stroke-width="0" font-family="Verdana" font-size="16" font-weight="bold">17</text><line x1="3437.008" x2="3437.008" y1="70.866" y2="602.362"/><text x="3440.551" y="67.323" fill="#000" stroke="#000" stroke-width="0" font-family="Verdana" font-size="12">T 27</text><line x1="3472.441" x2="3472.441" y1="70.866" y2="602.362"/><text x="3475.984" y="67.323" fill="#000" stroke="#000" stroke-width="0" font-family="Verdana" font-size="12">W 28</text><line x1="3507.874" x2="3507.874" y1="70.866" y2="602.362"/><text x="3511.417" y="67.323" fill="#000" stroke="#000" stroke-width="0" font-family="Verdana" font-size="12">T 29</text><line x1="3543.307" x2="3543.307" y1="70.866" y2="602.362"/><text x="3546.85" y="67.323" fill="#000" stroke="#000" stroke-width="0" font-family="Verdana" font-size="12">F 30</text><line x1="3578.74" x2="3578.74" y1="70.866" y2="602.362"/></g><g id="hlines" stroke="#d3d3d3"><line x1="0" x2="3578.74" y1="70.866" y2="70.866"/><line x1="0" x2="3578.74" y1="106.299" y2="106.299"/><line x1="0" x2="3578.74" y1="141.732" y2="141.732"/><line x1="0" x2="3578.74" y1="177.165" y2="177.165"/><line x1="0" x2="3578.74" y1="212.598" y2="212.598"/><line x1="0" x2="3578.74" y1="248.031" y2="248.031"/><line x1="0" x2="3578.74" y1="283.465" y2="283.465"/><line x1="0" x2="3578.74" y1="318.898" y2="318.898"/><line x1="0" x2="3578.74" y1="354.331" y2="354.331"/><line x1="0" x2="3578.74" y1="389.764" y2="389.764"/><line x1="0" x2="3578.74" y1="425.197" y2="425.197"/><line x1="0" x2="3578.74" y1="460.63" y2="460.63"/><line x1="0" x2="3578.74" y1="496.063" y2="496.063"/><line x1="0" x2="3578.74" y1="531.496" y2="531.496"/><line x1="0" x2="3578.74" y1="566.929" y2="566.929"/><line x1="0" x2="3578.74" y1="602.362" y2="602.362"/></g><line x1="0" x2="3578.74" y1="70.866" y2="70.866" stroke="#000"/><line x1="0" x2="3578.74" y1="602.362" y2="602.362" stroke="#000"/></g><g><g><text x="10.63" y="95.669" fill="#000" stroke="#000" stroke-width="0" font-family="Verdana" font-size="18">All Projects</text><rect width="7.087" height="510.236" x="2.835" y="88.583" fill="purple" stroke="#d3d3d3" stroke-width="0" opacity=".5"/><g><g><text x="31.89" y="131.102" fill="#000" stroke="#000" stroke-width="0" font-family="Verdana" font-size="18">Project 1</text><rect width="7.087" height="155.906" x="24.094" y="124.016" fill="purple" stroke="#d3d3d3" stroke-width="0" opacity=".5"/><g><g id="task1"><rect width="595.276" height="28.346" x="251.575" y="145.276" fill="#a3ddcb" stroke="#a3ddcb" stroke-width="2" opacity=".85"/><rect width="595.276" height="10.63" x="251.575" y="162.992" fill="#909090" stroke="#a3ddcb" stroke-width="1" opacity=".2"/><text x="255.118" y="159.449" fill="#000" stroke="#000" stroke-width="0" font-family="Verdana" font-size="15">task1</text><text x="255.118" y="171.85" fill="purple" stroke="#000" stroke-width="0" font-family="Verdana" font-size="10">Ben</text></g><g id="task2"><rect width="347.244" height="28.346" x="747.638" y="180.709" fill="#a3ddcb" stroke="#a3ddcb" stroke-width="2" opacity=".85"/><rect width="347.244" height="10.63" x="747.638" y="198.425" fill="#909090" stroke="#a3ddcb" stroke-width="1" opacity=".2"/><text x="751.181" y="194.882" fill="#000" stroke="#000" stroke-width="0" font-family="Verdana" font-size="15">task2</text><text x="751.181" y="207.283" fill="purple" stroke="#000" stroke-width="0" font-family="Verdana" font-size="10">Alex</text></g><g id="task3"><rect width="488.976" height="28.346" x="1066.535" y="216.142" fill="#a3ddcb" stroke="#a3ddcb" stroke-width="2" opacity=".85"/><rect width="488.976" height="10.63" x="1066.535" y="233.858" fill="#909090" stroke="#a3ddcb" stroke-width="1" opacity=".2"/><text x="1070.079" y="230.315" fill="#000" stroke="#000" stroke-width="0" font-family="Verdana" font-size="15">task3</text><text x="1070.079" y="242.717" fill="purple" stroke="#000" stroke-width="0" font-family="Verdana" font-size="10">Ben</text></g><g id="task4"><rect width="807.874" height="28.346" x="1420.866" y="251.575" fill="#a3ddcb" stroke="#a3ddcb" stroke-width="2" opacity=".85"/><rect width="807.874" height="10.63" x="1420.866" y="269.291" fill="#909090" stroke="#a3ddcb" stroke-width="1" opacity=".2"/><text x="1424.409" y="265.748" fill="#000" stroke="#000" stroke-width="0" font-family="Verdana" font-size="15">task4</text><text x="1424.409" y="278.15" fill="purple" stroke="#000" stroke-width="0" font-family="Verdana" font-size="10">Ben / Alex</text></g></g></g><g><text x="31.89" y="308.268" fill="#000" stroke="#000" stroke-width="0" font-family="Verdana" font-size="18">Project 2</text><rect width="7.087" height="297.638" x="24.094" y="301.181" fill="purple" stroke="#d3d3d3" stroke-width="0" opacity=".5"/><g><g id="task1"><rect width="418.11" height="28.346" x="2164.961" y="322.441" fill="#ffe3de" stroke="#ffe3de" stroke-width="2" opacity=".85"/><rect width="418.11" height="10.63" x="2164.961" y="340.157" fill="#909090" stroke="#ffe3de" stroke-width="1" opacity=".2"/><rect width="17.717" height="14.173" x="2164.961" y="322.441" fill="#00F" stroke="#ffe3de" stroke-width="1" opacity=".35"/><text x="2168.504" y="336.614" fill="#000" stroke="#000" stroke-width="0" font-family="Verdana" font-size="15">task1</text><text x="2168.504" y="349.016" fill="purple" stroke="#000" stroke-width="0" font-family="Verdana" font-size="10">Alex</text></g><g id="task2"><rect width="347.244" height="28.346" x="2200.394" y="357.874" fill="#ffe3de" stroke="#ffe3de" stroke-width="2" opacity=".85"/><rect width="347.244" height="10.63" x="2200.394" y="375.591" fill="#909090" stroke="#ffe3de" stroke-width="1" opacity=".2"/><text x="2203.937" y="372.047" fill="#000" stroke="#000" stroke-width="0" font-family="Verdana" font-size="15">task2</text><text x="2203.937" y="384.449" fill="purple" stroke="#000" stroke-width="0" font-family="Verdana" font-size="10">Ben</text></g><g id="task3"><rect width="488.976" height="28.346" x="2235.827" y="393.307" fill="#ffe3de" stroke="#ffe3de" stroke-width="2" opacity=".85"/><rect width="488.976" height="10.63" x="2235.827" y="411.024" fill="#909090" stroke="#ffe3de" stroke-width="1" opacity=".2"/><text x="2239.37" y="407.48" fill="#000" stroke="#000" stroke-width="0" font-family="Verdana" font-size="15">task3</text><text x="2239.37" y="419.882" fill="purple" stroke="#000" stroke-width="0" font-family="Verdana" font-size="10">Ben</text></g><g id="task4"><rect width="170.079" height="28.346" x="2661.024" y="428.74" fill="#ffe3de" stroke="#ffe3de" stroke-width="2" opacity=".85"/><rect width="170.079" height="10.63" x="2661.024" y="446.457" fill="#909090" stroke="#ffe3de" stroke-width="1" opacity=".2"/><text x="2664.567" y="442.913" fill="#000" stroke="#000" stroke-width="0" font-family="Verdana" font-size="15">task4</text><text x="2664.567" y="455.315" fill="purple" stroke="#000" stroke-width="0" font-family="Verdana" font-size="10">Ben / Alex</text></g><g id="Milestone_1"><polygon fill="#FF3030" stroke="#FF3030" stroke-width="2" points="2746.063 467.717 2756.693 478.346 2746.063 488.976 2735.433 478.346" opacity=".85"/><text x="2735.433" y="478.346" fill="#000" stroke="#000" stroke-width="0" font-family="Verdana" font-size="15">Milestone 1</text></g><g id="Milestone_2"><polygon fill="#FF3030" stroke="#FF3030" stroke-width="2" points="2923.228 538.583 2933.858 549.213 2923.228 559.843 2912.598 549.213" opacity=".85"/><text x="2912.598" y="549.213" fill="#000" stroke="#000" stroke-width="0" font-family="Verdana" font-size="15">Milestone 2</text></g></g></g></g></g><g><g><g><line x1="2579.527" x2="2746.063" y1="336.614" y2="336.614" stroke="#000" stroke-dasharray="5 3"/><marker id="id13" markerHeight="10" markerWidth="10" refX="5" refY="5"><circle cx="5" cy="5" r="5" fill="#000" stroke-width="0" opacity=".5"/></marker><line x1="2746.063" x2="2746.063" y1="336.614" y2="460.63" stroke="#000" stroke-dasharray="5 3" marker-end="url(#id13)"/><line x1="2721.26" x2="2746.063" y1="407.48" y2="407.48" stroke="#000" stroke-dasharray="5 3"/><marker id="id14" markerHeight="10" markerWidth="10" refX="5" refY="5"><circle cx="5" cy="5" r="5" fill="#000" stroke-width="0" opacity=".5"/></marker><line x1="2746.063" x2="2746.063" y1="407.48" y2="460.63" stroke="#000" stroke-dasharray="5 3" marker-end="url(#id14)"/></g><g><line x1="2579.527" x2="2923.228" y1="336.614" y2="336.614" stroke="#000" stroke-dasharray="5 3"/><marker id="id15" markerHeight="10" markerWidth="10" refX="5" refY="5"><circle cx="5" cy="5" r="5" fill="#000" stroke-width="0" opacity=".5"/></marker><line x1="2923.228" x2="2923.228" y1="336.614" y2="531.496" stroke="#000" stroke-dasharray="5 3" marker-end="url(#id15)"/><line x1="2827.559" x2="2923.228" y1="442.913" y2="442.913" stroke="#000" stroke-dasharray="5 3"/><marker id="id16" markerHeight="10" markerWidth="10" refX="5" refY="5"><circle cx="5" cy="5" r="5" fill="#000" stroke-width="0" opacity=".5"/></marker><line x1="2923.228" x2="2923.228" y1="442.913" y2="531.496" stroke="#000" stroke-dasharray="5 3" marker-end="url(#id16)"/></g></g></g></g></svg>