<?xml version="1.0" encoding="utf-8" ?>
<svg baseProfile="full" height="637.79526" version="1.1" width="3578.7400700000003" xmlns="http://www.w3.org/2000/svg" xmlns:ev="http://www.w3.org/2001/xml-events" xmlns:xlink="http://www.w3.org/1999/xlink"><defs /><rect fill="white" height="637.79526" opacity="1" stroke-width="0" width="3578.7400700000003" x="0.0" y="0.0" /><g><g id="vlines" stroke="lightgray"><line x1="0.0" x2="0.0" y1="70.86614" y2="602.36219" /><text fill="black" font-family="Verdana" font-size="12" stroke="black" stroke-width="0" x="3.543307" y="67.322833">W 20</text><line x1="35.43307" x2="35.43307" y1="70.86614" y2="602.36219" /><text fill="black" font-family="Verdana" font-size="12" stroke="black" stroke-width="0" x="38.976377" y="67.322833">T 21</text><line x1="70.86614" x2="70.86614" y1="70.86614" y2="602.36219" /><text fill="black" font-family="Verdana" font-size="12" stroke="black" stroke-width="0" x="74.409447" y="67.322833">F 22</text><line x1="106.29921" x2="106.29921" y1="70.86614" y2="602.36219" /><rect fill="gray" height="531.49605" opacity="0.7" stroke="lightgray" stroke-width="1" width="35.43307" x="106.29921" y="70.86614" /><text fill="black" font-family="Verdana" font-size="12" stroke="black" stroke-width="0" x="109.842517" y="67.322833">S 23</text><line x1="141.73228" x2="141.73228" y1="70.86614" y2="602.36219" /><rect fill="gray" height="531.49605" opacity="0.7" stroke="lightgray" stroke-width="1" width="35.43307" x="141.73228" y="70.86614" /><text fill="black" font-family="Verdana" font-size="12" stroke="black" stroke-width="0" x="145.275587" y="67.322833">S 24</text><line x1="177.16535" x2="177.16535" y1="70.86614" y2="602.36219" /><text fill="black" font-family="Verdana" font-size="12" stroke="black" stroke-width="0" x="180.708657" y="67.322833">M 25</text><text fill="black" font-family="Verdana" font-size="16" font-weight="bold" stroke="black" stroke-width="0" x="180.708657" y="53.149605">04</text><line x1="212.59842" x2="212.59842" y1="70.86614" y2="602.36219" /><text fill="black" font-family="Verdana" font-size="12" stroke="black" stroke-width="0" x="216.141727" y="67.322833">T 26</text><line x1="248.03149000000002" x2="248.03149000000002" y1="70.86614" y2="602.36219" /><rect fill="#76e9ff" height="531.49605" opacity="0.8" stroke="lightgray" stroke-width="0" width="7.086614000000001" x="262.204718" y="70.86614" /><text fill="black" font-family="Verdana" font-size="12" stroke="black" stroke-width="0" x="251.574797" y="67.322833">W 27</text><line x1="283.46456" x2="283.46456" y1="70.86614" y2="602.36219" /><text fill="black" font-family="Verdana" font-size="12" stroke="black" stroke-width="0" x="287.007867" y="67.322833">T 28</text><line x1="318.89763" x2="318.89763" y1="70.86614" y2="602.36219" /><text fill="black" font-family="Verdana" font-size="12" stroke="black" stroke-width="0" x="322.440937" y="67.322833">F 29</text><line x1="354.3307" x2="354.3307" y1="70.86614" y2="602.36219" /><rect fill="gray" height="531.49605" opacity="0.7" stroke="lightgray" stroke-width="1" width="35.43307" x="354.3307" y="70.86614" /><text fill="black" font-family="Verdana" font-size="12" stroke="black" stroke-width="0" x="357.874007" y="67.322833">S 30</text><line x1="389.76377" x2="389.76377" y1="70.86614" y2="602.36219" /><rect fill="gray" height="531.49605" opacity="0.7" stroke="lightgray" stroke-width="1" width="35.43307" x="389.76377" y="70.86614" /><text fill="black" font-family="Verdana" font-size="12" stroke="black" stroke-width="0" x="393.307077" y="67.322833">S 31</text><line x1="425.19684" x2="425.19684" y1="70.86614" y2="602.36219" /><text fill="black" font-family="Verdana" font-size="12" stroke="black" stroke-width="0" x="428.740147" y="67.322833">M 01</text><text fill="#800000" font-family="Verdana" font-size="18" font-weight="bold" stroke="#800000" stroke-width="0" x="428.740147" y="35.43307">February</text><text fill="black" font-family="Verdana" font-size="16" font-weight="bold" stroke="black" stroke-width="0" x="428.740147" y="53.149605">05</text><line x1="460.62991" x2="460.62991" y1="70.86614" y2="602.36219" /><text fill="black" font-family="Verdana" font-size="12" stroke="black" stroke-width="0" x="464.173217" y="67.322833">T 02</text><line x1="496.06298000000004" x2="496.06298000000004" y1="70.86614" y2="602.36219" /><text fill="black" font-family="Verdana" font-size="12" stroke="black" stroke-width="0" x="499.606287" y="67.322833">W 03</text><line x1="531.49605" x2="531.49605" y1="70.86614" y2="602.36219" /><text fill="black" font-family="Verdana" font-size="12" stroke="black" stroke-width="0" x="535.039357" y="67.322833">T 04</text><line x1="566.92912" x2="566.92912" y1="70.86614" y2="602.36219" /><text fill="black" font-family="Verdana" font-size="12" stroke="black" stroke-width="0" x="570.472427" y="67.322833">F 05</text><line x1="602.36219" x2="602.36219" y1="70.86614" y2="602.36219" /><rect fill="gray" height="531.49605" opacity="0.7" stroke="lightgray" stroke-width="1" width="35.43307" x="602.36219" y="70.86614" /><text fill="black" font-family="Verdana" font-size="12" stroke="black" stroke-width="0" x="605.905497" y="67.322833">S 06</text><line x1="637.79526" x2="637.79526" y1="70.86614" y2="602.36219" /><rect fill="gray" height="531.49605" opacity="0.7" stroke="lightgray" stroke-width="1" width="35.43307" x="637.79526" y="70.86614" /><text fill="black" font-family="Verdana" font-size="12" stroke="black" stroke-width="0" x="641.338567" y="67.322833">S 07</text><line x1="673.22833" x2="673.22833" y1="70.86614" y2="602.36219" /><text fill="black" font-family="Verdana" font-size="12" stroke="black" stroke-width="0" x="676.7716369999999" y="67.322833">M 08</text><text fill="black" font-family="Verdana" font-size="16" font-weight="bold" stroke="black" stroke-width="0" x="676.7716369999999" y="53.149605">06</text><line x1="708.6614" x2="708.6614" y1="70.86614" y2="602.36219" /><text fill="black" font-family="Verdana" font-size="12" stroke="black" stroke-width="0" x="712.204707" y="67.322833">T 09</text><line x1="744.09447" x2="744.09447" y1="70.86614" y2="602.36219" /><text fill="black" font-family="Verdana" font-size="12" stroke="black" stroke-width="0" x="747.637777" y="67.322833">W 10</text><line x1="779.52754" x2="779.52754" y1="70.86614" y2="602.36219" /><text fill="black" font-family="Verdana" font-size="12" stroke="black" stroke-width="0" x="783.070847" y="67.322833">T 11</text><line x1="814.96061" x2="814.96061" y1="70.86614" y2="602.36219" /><text fill="black" font-family="Verdana" font-size="12" stroke="black" stroke-width="0" x="818.503917" y="67.322833">F 12</text><line x1="850.39368" x2="850.39368" y1="70.86614" y2="602.36219" /><rect fill="gray" height="531.49605" opacity="0.7" stroke="lightgray" stroke-width="1" width="35.43307" x="850.39368" y="70.86614" /><text fill="black" font-family="Verdana" font-size="12" stroke="black" stroke-width="0" x="853.936987" y="67.322833">S 13</text><line x1="885.8267500000001" x2="885.8267500000001" y1="70.86614" y2="602.36219" /><rect fill="gray" height="531.49605" opacity="0.7" stroke="lightgray" stroke-width="1" width="35.43307" x="885.8267500000001" y="70.86614" /><text fill="black" font-family="Verdana" font-size="12" stroke="black" stroke-width="0" x="889.370057" y="67.322833">S 14</text><line x1="921.25982" x2="921.25982" y1="70.86614" y2="602.36219" /><text fill="black" font-family="Verdana" font-size="12" stroke="black" stroke-width="0" x="924.803127" y="67.322833">M 15</text><text fill="black" font-family="Verdana" font-size="16" font-weight="bold" stroke="black" stroke-width="0" x="924.803127" y="53.149605">07</text><line x1="956.69289" x2="956.69289" y1="70.86614" y2="602.36219" /><text fill="black" font-family="Verdana" font-size="12" stroke="black" stroke-width="0" x="960.236197" y="67.322833">T 16</text><line x1="992.1259600000001" x2="992.1259600000001" y1="70.86614" y2="602.36219" /><text fill="black" font-family="Verdana" font-size="12" stroke="black" stroke-width="0" x="995.669267" y="67.322833">W 17</text><line x1="1027.5590300000001" x2="1027.5590300000001" y1="70.86614" y2="602.36219" /><text fill="black" font-family="Verdana" font-size="12" stroke="black" stroke-width="0" x="1031.102337" y="67.322833">T 18</text><line x1="1062.9921" x2="1062.9921" y1="70.86614" y2="602.36219" /><text fill="black" font-family="Verdana" font-size="12" stroke="black" stroke-width="0" x="1066.535407" y="67.322833">F 19</text><line x1="1098.42517" x2="1098.42517" y1="70.86614" y2="602.36219" /><rect fill="gray" height="531.49605" opacity="0.7" stroke="lightgray" stroke-width="1" width="35.43307" x="1098.42517" y="70.86614" /><text fill="black" font-family="Verdana" font-size="12" stroke="black" stroke-width="0" x="1101.968477" y="67.322833">S 20</text><line x1="1133.85824" x2="1133.85824" y1="70.86614" y2="602.36219" /><rect fill="gray" height="531.49605" opacity="0.7" stroke="lightgray" stroke-width="1" width="35.43307" x="1133.85824" y="70.86614" /><text fill="black" font-family="Verdana" font-size="12" stroke="black" stroke-width="0" x="1137.401547" y="67.322833">S 21</text><line x1="1169.29131" x2="1169.29131" y1="70.86614" y2="602.36219" /><text fill="black" font-family="Verdana" font-size="12" stroke="black" stroke-width="0" x="1172.834617" y="67.322833">M 22</text><text fill="black" font-family="Verdana" font-size="16" font-weight="bold" stroke="black" stroke-width="0" x="1172.834617" y="53.149605">08</text><line x1="1204.72438" x2="1204.72438" y1="70.86614" y2="602.36219" /><text fill="black" font-family="Verdana" font-size="12" stroke="black" stroke-width="0" x="1208.267687" y="67.322833">T 23</text><line x1="1240.15745" x2="1240.15745" y1="70.86614" y2="602.36219" /><text fill="black" font-family="Verdana" font-size="12" stroke="black" stroke-width="0" x="1243.700757" y="67.322833">W 24</text><line x1="1275.59052" x2="1275.59052" y1="70.86614" y2="602.36219" /><text fill="black" font-family="Verdana" font-size="12" stroke="black" stroke-width="0" x="1279.1338269999999" y="67.322833">T 25</text><line x1="1311.02359" x2="1311.02359" y1="70.86614" y2="602.36219" /><text fill="black" font-family="Verdana" font-size="12" stroke="black" stroke-width="0" x="1314.566897" y="67.322833">F 26</text><line x1="1346.45666" x2="1346.45666" y1="70.86614" y2="602.36219" /><rect fill="gray" height="531.49605" opacity="0.7" stroke="lightgray" stroke-width="1" width="35.43307" x="1346.45666" y="70.86614" /><text fill="black" font-family="Verdana" font-size="12" stroke="black" stroke-width="0" x="1349.999967" y="67.322833">S 27</text><line x1="1381.88973" x2="1381.88973" y1="70.86614" y2="602.36219" /><rect fill="gray" height="531.49605" opacity="0.7" stroke="lightgray" stroke-width="1" width="35.43307" x="1381.88973" y="70.86614" /><text fill="black" font-family="Verdana" font-size="12" stroke="black" stroke-width="0" x="1385.433037" y="67.322833">S 28</text><line x1="1417.3228" x2="1417.3228" y1="70.86614" y2="602.36219" /><text fill="black" font-family="Verdana" font-size="12" stroke="black" stroke-width="0" x="1420.866107" y="67.322833">M 01</text><text fill="#800000" font-family="Verdana" font-size="18" font-weight="bold" stroke="#800000" stroke-width="0" x="1420.866107" y="35.43307">March</text><text fill="black" font-family="Verdana" font-size="16" font-weight="bold" stroke="black" stroke-width="0" x="1420.866107" y="53.149605">09</text><line x1="1452.75587" x2="1452.75587" y1="70.86614" y2="602.36219" /><text fill="black" font-family="Verdana" font-size="12" stroke="black" stroke-width="0" x="1456.299177" y="67.322833">T 02</text><line x1="1488.18894" x2="1488.18894" y1="70.86614" y2="602.36219" /><text fill="black" font-family="Verdana" font-size="12" stroke="black" stroke-width="0" x="1491.732247" y="67.322833">W 03</text><line x1="1523.62201" x2="1523.62201" y1="70.86614" y2="602.36219" /><text fill="black" font-family="Verdana" font-size="12" stroke="black" stroke-width="0" x="1527.165317" y="67.322833">T 04</text><line x1="1559.05508" x2="1559.05508" y1="70.86614" y2="602.36219" /><text fill="black" font-family="Verdana" font-size="12" stroke="black" stroke-width="0" x="1562.598387" y="67.322833">F 05</text><line x1="1594.4881500000001" x2="1594.4881500000001" y1="70.86614" y2="602.36219" /><rect fill="gray" height="531.49605" opacity="0.7" stroke="lightgray" stroke-width="1" width="35.43307" x="1594.4881500000001" y="70.86614" /><text fill="black" font-family="Verdana" font-size="12" stroke="black" stroke-width="0" x="1598.031457" y="67.322833">S 06</text><line x1="1629.92122" x2="1629.92122" y1="70.86614" y2="602.36219" /><rect fill="gray" height="531.49605" opacity="0.7" stroke="lightgray" stroke-width="1" width="35.43307" x="1629.92122" y="70.86614" /><text fill="black" font-family="Verdana" font-size="12" stroke="black" stroke-width="0" x="1633.464527" y="67.322833">S 07</text><line x1="1665.35429" x2="1665.35429" y1="70.86614" y2="602.36219" /><text fill="black" font-family="Verdana" font-size="12" stroke="black" stroke-width="0" x="1668.897597" y="67.322833">M 08</text><text fill="black" font-family="Verdana" font-size="16" font-weight="bold" stroke="black" stroke-width="0" x="1668.897597" y="53.149605">10</text><line x1="1700.78736" x2="1700.78736" y1="70.86614" y2="602.36219" /><text fill="black" font-family="Verdana" font-size="12" stroke="black" stroke-width="0" x="1704.330667" y="67.322833">T 09</text><line x1="1736.22043" x2="1736.22043" y1="70.86614" y2="602.36219" /><text fill="black" font-family="Verdana" font-size="12" stroke="black" stroke-width="0" x="1739.763737" y="67.322833">W 10</text><line x1="1771.6535000000001" x2="1771.6535000000001" y1="70.86614" y2="602.36219" /><text fill="black" font-family="Verdana" font-size="12" stroke="black" stroke-width="0" x="1775.196807" y="67.322833">T 11</text><line x1="1807.08657" x2="1807.08657" y1="70.86614" y2="602.36219" /><text fill="black" font-family="Verdana" font-size="12" stroke="black" stroke-width="0" x="1810.629877" y="67.322833">F 12</text><line x1="1842.51964" x2="1842.51964" y1="70.86614" y2="602.36219" /><rect fill="gray" height="531.49605" opacity="0.7" stroke="lightgray" stroke-width="1" width="35.43307" x="1842.51964" y="70.86614" /><text fill="black" font-family="Verdana" font-size="12" stroke="black" stroke-width="0" x="1846.062947" y="67.322833">S 13</text><line x1="1877.95271" x2="1877.95271" y1="70.86614" y2="602.36219" /><rect fill="gray" height="531.49605" opacity="0.7" stroke="lightgray" stroke-width="1" width="35.43307" x="1877.95271" y="70.86614" /><text fill="black" font-family="Verdana" font-size="12" stroke="black" stroke-width="0" x="1881.496017" y="67.322833">S 14</text><line x1="1913.38578" x2="1913.38578" y1="70.86614" y2="602.36219" /><rect fill="gray" height="531.49605" opacity="0.7" stroke="lightgray" stroke-width="1" width="35.43307" x="1913.38578" y="70.86614" /><text fill="black" font-family="Verdana" font-size="12" stroke="black" stroke-width="0" x="1916.929087" y="67.322833">M 15</text><text fill="black" font-family="Verdana" font-size="16" font-weight="bold" stroke="black" stroke-width="0" x="1916.929087" y="53.149605">11</text><line x1="1948.81885" x2="1948.81885" y1="70.86614" y2="602.36219" /><rect fill="gray" height="531.49605" opacity="0.7" stroke="lightgray" stroke-width="1" width="35.43307" x="1948.81885" y="70.86614" /><text fill="black" font-family="Verdana" font-size="12" stroke="black" stroke-width="0" x="1952.362157" y="67.322833">T 16</text><line x1="1984.2519200000002" x2="1984.2519200000002" y1="70.86614" y2="602.36219" /><rect fill="gray" height="531.49605" opacity="0.7" stroke="lightgray" stroke-width="1" width="35.43307" x="1984.2519200000002" y="70.86614" /><text fill="black" font-family="Verdana" font-size="12" stroke="black" stroke-width="0" x="1987.795227" y="67.322833">W 17</text><line x1="2019.68499" x2="2019.68499" y1="70.86614" y2="602.36219" /><rect fill="gray" height="531.49605" opacity="0.7" stroke="lightgray" stroke-width="1" width="35.43307" x="2019.68499" y="70.86614" /><text fill="black" font-family="Verdana" font-size="12" stroke="black" stroke-width="0" x="2023.2282969999999" y="67.322833">T 18</text><line x1="2055.1180600000002" x2="2055.1180600000002" y1="70.86614" y2="602.36219" /><rect fill="gray" height="531.49605" opacity="0.7" stroke="lightgray" stroke-width="1" width="35.43307" x="2055.1180600000002" y="70.86614" /><text fill="black" font-family="Verdana" font-size="12" stroke="black" stroke-width="0" x="2058.661367" y="67.322833">F 19</text><line x1="2090.55113" x2="2090.55113" y1="70.86614" y2="602.36219" /><rect fill="gray" height="531.49605" opacity="0.7" stroke="lightgray" stroke-width="1" width="35.43307" x="2090.55113" y="70.86614" /><text fill="black" font-family="Verdana" font-size="12" stroke="black" stroke-width="0" x="2094.094437" y="67.322833">S 20</text><line x1="2125.9842" x2="2125.9842" y1="70.86614" y2="602.36219" /><rect fill="gray" height="531.49605" opacity="0.7" stroke="lightgray" stroke-width="1" width="35.43307" x="2125.9842" y="70.86614" /><text fill="black" font-family="Verdana" font-size="12" stroke="black" stroke-width="0" x="2129.527507" y="67.322833">S 21</text><line x1="2161.41727" x2="2161.41727" y1="70.86614" y2="602.36219" /><text fill="black" font-family="Verdana" font-size="12" stroke="black" stroke-width="0" x="2164.960577" y="67.322833">M 22</text><text fill="black" font-family="Verdana" font-size="16" font-weight="bold" stroke="black" stroke-width="0" x="2164.960577" y="53.149605">12</text><line x1="2196.85034" x2="2196.85034" y1="70.86614" y2="602.36219" /><text fill="black" font-family="Verdana" font-size="12" stroke="black" stroke-width="0" x="2200.393647" y="67.322833">T 23</text><line x1="2232.28341" x2="2232.28341" y1="70.86614" y2="602.36219" /><text fill="black" font-family="Verdana" font-size="12" stroke="black" stroke-width="0" x="2235.826717" y="67.322833">W 24</text><line x1="2267.71648" x2="2267.71648" y1="70.86614" y2="602.36219" /><text fill="black" font-family="Verdana" font-size="12" stroke="black" stroke-width="0" x="2271.259787" y="67.322833">T 25</text><line x1="2303.14955" x2="2303.14955" y1="70.86614" y2="602.36219" /><text fill="black" font-family="Verdana" font-size="12" stroke="black" stroke-width="0" x="2306.692857" y="67.322833">F 26</text><line x1="2338.58262" x2="2338.58262" y1="70.86614" y2="602.36219" /><rect fill="gray" height="531.49605" opacity="0.7" stroke="lightgray" stroke-width="1" width="35.43307" x="2338.58262" y="70.86614" /><text fill="black" font-family="Verdana" font-size="12" stroke="black" stroke-width="0" x="2342.125927" y="67.322833">S 27</text><line x1="2374.01569" x2="2374.01569" y1="70.86614" y2="602.36219" /><rect fill="gray" height="531.49605" opacity="0.7" stroke="lightgray" stroke-width="1" width="35.43307" x="2374.01569" y="70.86614" /><text fill="black" font-family="Verdana" font-size="12" stroke="black" stroke-width="0" x="2377.558997" y="67.322833">S 28</text><line x1="2409.44876" x2="2409.44876" y1="70.86614" y2="602.36219" /><text fill="black" font-family="Verdana" font-size="12" stroke="black" stroke-width="0" x="2412.992067" y="67.322833">M 29</text><text fill="black" font-family="Verdana" font-size="16" font-weight="bold" stroke="black" stroke-width="0" x="2412.992067" y="53.149605">13</text><line x1="2444.8818300000003" x2="2444.8818300000003" y1="70.86614" y2="602.36219" /><text fill="black" font-family="Verdana" font-size="12" stroke="black" stroke-width="0" x="2448.425137" y="67.322833">T 30</text><line x1="2480.3149" x2="2480.3149" y1="70.86614" y2="602.36219" /><text fill="black" font-family="Verdana" font-size="12" stroke="black" stroke-width="0" x="2483.8582069999998" y="67.322833">W 31</text><line x1="2515.74797" x2="2515.74797" y1="70.86614" y2="602.36219" /><text fill="black" font-family="Verdana" font-size="12" stroke="black" stroke-width="0" x="2519.291277" y="67.322833">T 01</text><text fill="#800000" font-family="Verdana" font-size="18" font-weight="bold" stroke="#800000" stroke-width="0" x="2519.291277" y="35.43307">April</text><line x1="2551.18104" x2="2551.18104" y1="70.86614" y2="602.36219" /><text fill="black" font-family="Verdana" font-size="12" stroke="black" stroke-width="0" x="2554.724347" y="67.322833">F 02</text><line x1="2586.61411" x2="2586.61411" y1="70.86614" y2="602.36219" /><rect fill="gray" height="531.49605" opacity="0.7" stroke="lightgray" stroke-width="1" width="35.43307" x="2586.61411" y="70.86614" /><text fill="black" font-family="Verdana" font-size="12" stroke="black" stroke-width="0" x="2590.157417" y="67.322833">S 03</text><line x1="2622.04718" x2="2622.04718" y1="70.86614" y2="602.36219" /><rect fill="gray" height="531.49605" opacity="0.7" stroke="lightgray" stroke-width="1" width="35.43307" x="2622.04718" y="70.86614" /><text fill="black" font-family="Verdana" font-size="12" stroke="black" stroke-width="0" x="2625.590487" y="67.322833">S 04</text><line x1="2657.48025" x2="2657.48025" y1="70.86614" y2="602.36219" /><text fill="black" font-family="Verdana" font-size="12" stroke="black" stroke-width="0" x="2661.023557" y="67.322833">M 05</text><text fill="black" font-family="Verdana" font-size="16" font-weight="bold" stroke="black" stroke-width="0" x="2661.023557" y="53.149605">14</text><line x1="2692.91332" x2="2692.91332" y1="70.86614" y2="602.36219" /><text fill="black" font-family="Verdana" font-size="12" stroke="black" stroke-width="0" x="2696.456627" y="67.322833">T 06</text><line x1="2728.34639" x2="2728.34639" y1="70.86614" y2="602.36219" /><text fill="black" font-family="Verdana" font-size="12" stroke="black" stroke-width="0" x="2731.889697" y="67.322833">W 07</text><line x1="2763.77946" x2="2763.77946" y1="70.86614" y2="602.36219" /><text fill="black" font-family="Verdana" font-size="12" stroke="black" stroke-width="0" x="2767.322767" y="67.322833">T 08</text><line x1="2799.2125300000002" x2="2799.2125300000002" y1="70.86614" y2="602.36219" /><text fill="black" font-family="Verdana" font-size="12" stroke="black" stroke-width="0" x="2802.755837" y="67.322833">F 09</text><line x1="2834.6456" x2="2834.6456" y1="70.86614" y2="602.36219" /><rect fill="gray" height="531.49605" opacity="0.7" stroke="lightgray" stroke-width="1" width="35.43307" x="2834.6456" y="70.86614" /><text fill="black" font-family="Verdana" font-size="12" stroke="black" stroke-width="0" x="2838.188907" y="67.322833">S 10</text><line x1="2870.07867" x2="2870.07867" y1="70.86614" y2="602.36219" /><rect fill="gray" height="531.49605" opacity="0.7" stroke="lightgray" stroke-width="1" width="35.43307" x="2870.07867" y="70.86614" /><text fill="black" font-family="Verdana" font-size="12" stroke="black" stroke-width="0" x="2873.621977" y="67.322833">S 11</text><line x1="2905.51174" x2="2905.51174" y1="70.86614" y2="602.36219" /><text fill="black" font-family="Verdana" font-size="12" stroke="black" stroke-width="0" x="2909.055047" y="67.322833">M 12</text><text fill="black" font-family="Verdana" font-size="16" font-weight="bold" stroke="black" stroke-width="0" x="2909.055047" y="53.149605">15</text><line x1="2940.94481" x2="2940.94481" y1="70.86614" y2="602.36219" /><text fill="black" font-family="Verdana" font-size="12" stroke="black" stroke-width="0" x="2944.488117" y="67.322833">T 13</text><line x1="2976.37788" x2="2976.37788" y1="70.86614" y2="602.36219" /><text fill="black" font-family="Verdana" font-size="12" stroke="black" stroke-width="0" x="2979.921187" y="67.322833">W 14</text><line x1="3011.81095" x2="3011.81095" y1="70.86614" y2="602.36219" /><rect fill="gray" height="531.49605" opacity="0.7" stroke="lightgray" stroke-width="1" width="35.43307" x="3011.81095" y="70.86614" /><text fill="black" font-family="Verdana" font-size="12" stroke="black" stroke-width="0" x="3015.354257" y="67.322833">T 15</text><line x1="3047.24402" x2="3047.24402" y1="70.86614" y2="602.36219" /><rect fill="gray" height="531.49605" opacity="0.7" stroke="lightgray" stroke-width="1" width="35.43307" x="3047.24402" y="70.86614" /><text fill="black" font-family="Verdana" font-size="12" stroke="black" stroke-width="0" x="3050.787327" y="67.322833">F 16</text><line x1="3082.67709" x2="3082.67709" y1="70.86614" y2="602.36219" /><rect fill="gray" height="531.49605" opacity="0.7" stroke="lightgray" stroke-width="1" width="35.43307" x="3082.67709" y="70.86614" /><text fill="black" font-family="Verdana" font-size="12" stroke="black" stroke-width="0" x="3086.220397" y="67.322833">S 17</text><line x1="3118.11016" x2="3118.11016" y1="70.86614" y2="602.36219" /><rect fill="gray" height="531.49605" opacity="0.7" stroke="lightgray" stroke-width="1" width="35.43307" x="3118.11016" y="70.86614" /><text fill="black" font-family="Verdana" font-size="12" stroke="black" stroke-width="0" x="3121.653467" y="67.322833">S 18</text><line x1="3153.54323" x2="3153.54323" y1="70.86614" y2="602.36219" /><rect fill="gray" height="531.49605" opacity="0.7" stroke="lightgray" stroke-width="1" width="35.43307" x="3153.54323" y="70.86614" /><text fill="black" font-family="Verdana" font-size="12" stroke="black" stroke-width="0" x="3157.086537" y="67.322833">M 19</text><text fill="black" font-family="Verdana" font-size="16" font-weight="bold" stroke="black" stroke-width="0" x="3157.086537" y="53.149605">16</text><line x1="3188.9763000000003" x2="3188.9763000000003" y1="70.86614" y2="602.36219" /><rect fill="gray" height="531.49605" opacity="0.7" stroke="lightgray" stroke-width="1" width="35.43307" x="3188.9763000000003" y="70.86614" /><text fill="black" font-family="Verdana" font-size="12" stroke="black" stroke-width="0" x="3192.519607" y="67.322833">T 20</text><line x1="3224.40937" x2="3224.40937" y1="70.86614" y2="602.36219" /><text fill="black" font-family="Verdana" font-size="12" stroke="black" stroke-width="0" x="3227.9526769999998" y="67.322833">W 21</text><line x1="3259.84244" x2="3259.84244" y1="70.86614" y2="602.36219" /><text fill="black" font-family="Verdana" font-size="12" stroke="black" stroke-width="0" x="3263.385747" y="67.322833">T 22</text><line x1="3295.27551" x2="3295.27551" y1="70.86614" y2="602.36219" /><text fill="black" font-family="Verdana" font-size="12" stroke="black" stroke-width="0" x="3298.818817" y="67.322833">F 23</text><line x1="3330.70858" x2="3330.70858" y1="70.86614" y2="602.36219" /><rect fill="gray" height="531.49605" opacity="0.7" stroke="lightgray" stroke-width="1" width="35.43307" x="3330.70858" y="70.86614" /><text fill="black" font-family="Verdana" font-size="12" stroke="black" stroke-width="0" x="3334.251887" y="67.322833">S 24</text><line x1="3366.14165" x2="3366.14165" y1="70.86614" y2="602.36219" /><rect fill="gray" height="531.49605" opacity="0.7" stroke="lightgray" stroke-width="1" width="35.43307" x="3366.14165" y="70.86614" /><text fill="black" font-family="Verdana" font-size="12" stroke="black" stroke-width="0" x="3369.684957" y="67.322833">S 25</text><line x1="3401.57472" x2="3401.57472" y1="70.86614" y2="602.36219" /><text fill="black" font-family="Verdana" font-size="12" stroke="black" stroke-width="0" x="3405.118027" y="67.322833">M 26</text><text fill="black" font-family="Verdana" font-size="16" font-weight="bold" stroke="black" stroke-width="0" x="3405.118027" y="53.149605">17</text><line x1="3437.00779" x2="3437.00779" y1="70.86614" y2="602.36219" /><text fill="black" font-family="Verdana" font-size="12" stroke="black" stroke-width="0" x="3440.551097" y="67.322833">T 27</text><line x1="3472.44086" x2="3472.44086" y1="70.86614" y2="602.36219" /><text fill="black" font-family="Verdana" font-size="12" stroke="black" stroke-width="0" x="3475.984167" y="67.322833">W 28</text><line x1="3507.87393" x2="3507.87393" y1="70.86614" y2="602.36219" /><text fill="black" font-family="Verdana" font-size="12" stroke="black" stroke-width="0" x="3511.417237" y="67.322833">T 29</text><line x1="3543.3070000000002" x2="3543.3070000000002" y1="70.86614" y2="602.36219" /><text fill="black" font-family="Verdana" font-size="12" stroke="black" stroke-width="0" x="3546.850307" y="67.322833">F 30</text><line x1="3578.7400700000003" x2="3578.7400700000003" y1="70.86614" y2="602.36219" /></g><g id="hlines" stroke="lightgray"><line x1="0.0" x2="3578.7400700000003" y1="70.86614" y2="70.86614" /><line x1="0.0" x2="3578.7400700000003" y1="106.29921" y2="106.29921" /><line x1="0.0" x2="3578.7400700000003" y1="141.73228" y2="141.73228" /><line x1="0.0" x2="3578.7400700000003" y1="177.16535" y2="177.16535" /><line x1="0.0" x2="3578.7400700000003" y1="212.59842" y2="212.59842" /><line x1="0.0" x2="3578.7400700000003" y1="248.03149000000002" y2="248.03149000000002" /><line x1="0.0" x2="3578.7400700000003" y1="283.46456" y2="283.46456" /><line x1="0.0" x2="3578.7400700000003" y1="318.89763" y2="318.89763" /><line x1="0.0" x2="3578.7400700000003" y1="354.3307" y2="354.3307" /><line x1="0.0" x2="3578.7400700000003" y1="389.76377" y2="389.76377" /><line x1="0.0" x2="3578.7400700000003" y1="425.19684" y2="425.19684" /><line x1="0.0" x2="3578.7400700000003" y1="460.62991" y2="460.62991" /><line x1="0.0" x2="3578.7400700000003" y1="496.06298000000004" y2="496.06298000000004" /><line x1="0.0" x2="3578.7400700000003" y1="531.49605" y2="531.49605" /><line x1="0.0" x2="3578.7400700000003" y1="566.92912" y2="566.92912" /><line x1="0.0" x2="3578.7400700000003" y1="602.36219" y2="602.36219" /></g><line stroke="black" x1="0.0" x2="3578.7400700000003" y1="70.86614" y2="70.86614" /><line stroke="black" x1="0.0" x2="3578.7400700000003" y1="602.36219" y2="602.36219" /></g><g><g><text fill="black" font-family="Verdana" font-size="18" stroke="black" stroke-width="0" x="10.629921" y="95.669289">All Projects</text><rect fill="purple" height="510.23620800000003" opacity="0.5" stroke="lightgray" stroke-width="0" width="7.086614000000001" x="2.8346456" y="88.582675" /><g><g><text fill="black" font-family="Verdana" font-size="18" stroke="black" stroke-width="0" x="31.889763" y="131.102359">Project 1</text><rect fill="purple" height="155.90550800000003" opacity="0.5" stroke="lightgray" stroke-width="0" width="7.086614000000001" x="24.0944876" y="124.01574500000001" /><g><g id="task1"><rect fill="#a3ddcb" height="28.346456" opacity="0.85" stroke="#a3ddcb" stroke-width="2" width="595.275576" x="251.574797" y="145.275587" /><rect fill="#909090" height="10.629921" opacity="0.2" stroke="#a3ddcb" stroke-width="1" width="595.275576" x="251.574797" y="162.992122" /><text fill="black" font-family="Verdana" font-size="15" stroke="black" stroke-width="0" x="255.118104" y="159.448815">task1</text><text fill="purple" font-family="Verdana" font-size="10" stroke="black" stroke-width="0" x="255.118104" y="171.8503895">Ben</text></g><g id="task2"><rect fill="#a3ddcb" height="28.346456" opacity="0.85" stroke="#a3ddcb" stroke-width="2" width="347.244086" x="747.637777" y="180.708657" /><rect fill="#909090" height="10.629921" opacity="0.2" stroke="#a3ddcb" stroke-width="1" width="347.244086" x="747.637777" y="198.425192" /><text fill="black" font-family="Verdana" font-size="15" stroke="black" stroke-width="0" x="751.1810839999999" y="194.881885">task2</text><text fill="purple" font-family="Verdana" font-size="10" stroke="black" stroke-width="0" x="751.1810839999999" y="207.2834595">Alex</text></g><g id="task3"><rect fill="#a3ddcb" height="28.346456" opacity="0.85" stroke="#a3ddcb" stroke-width="2" width="488.976366" x="1066.535407" y="216.141727" /><rect fill="#909090" height="10.629921" opacity="0.2" stroke="#a3ddcb" stroke-width="1" width="488.976366" x="1066.535407" y="233.858262" /><text fill="black" font-family="Verdana" font-size="15" stroke="black" stroke-width="0" x="1070.078714" y="230.314955">task3</text><text fill="purple" font-family="Verdana" font-size="10" stroke="black" stroke-width="0" x="1070.078714" y="242.7165295">Ben</text></g><g id="task4"><rect fill="#a3ddcb" height="28.346456" opacity="0.85" stroke="#a3ddcb" stroke-width="2" width="807.873996" x="1420.866107" y="251.574797" /><rect fill="#909090" height="10.629921" opacity="0.2" stroke="#a3ddcb" stroke-width="1" width="807.873996" x="1420.866107" y="269.291332" /><text fill="black" font-family="Verdana" font-size="15" stroke="black" stroke-width="0" x="1424.409414" y="265.748025">task4</text><text fill="purple" font-family="Verdana" font-size="10" stroke="black" stroke-width="0" x="1424.409414" y="278.1495995">Ben / Alex</text></g></g></g><g><text fill="black" font-family="Verdana" font-size="18" stroke="black" stroke-width="0" x="31.889763" y="308.267709">Project 2</text><rect fill="purple" height="297.637788" opacity="0.5" stroke="lightgray" stroke-width="0" width="7.086614000000001" x="24.0944876" y="301.181095" /><g><g id="task1"><rect fill="#ffe3de" height="28.346456" opacity="0.85" stroke="#ffe3de" stroke-width="2" width="418.110226" x="2164.960577" y="322.440937" /><rect fill="#909090" height="10.629921" opacity="0.2" stroke="#ffe3de" stroke-width="1" width="418.110226" x="2164.960577" y="340.157472" /><rect fill="#0000FF" height="14.173228" opacity="0.35" stroke="#ffe3de" stroke-width="1" width="17.716535" x="2164.960577" y="322.440937" /><text fill="black" font-family="Verdana" font-size="15" stroke="black" stroke-width="0" x="2168.503884" y="336.614165">task1</text><text fill="purple" font-family="Verdana" font-size="10" stroke="black" stroke-width="0" x="2168.503884" y="349.0157395">Alex</text></g><g id="task2"><rect fill="#ffe3de" height="28.346456" opacity="0.85" stroke="#ffe3de" stroke-width="2" width="347.244086" x="2200.393647" y="357.874007" /><rect fill="#909090" height="10.629921" opacity="0.2" stroke="#ffe3de" stroke-width="1" width="347.244086" x="2200.393647" y="375.59054199999997" /><text fill="black" font-family="Verdana" font-size="15" stroke="black" stroke-width="0" x="2203.936954" y="372.047235">task2</text><text fill="purple" font-family="Verdana" font-size="10" stroke="black" stroke-width="0" x="2203.936954" y="384.4488095">Ben</text></g><g id="task3"><rect fill="#ffe3de" height="28.346456" opacity="0.85" stroke="#ffe3de" stroke-width="2" width="488.976366" x="2235.826717" y="393.307077" /><rect fill="#909090" height="10.629921" opacity="0.2" stroke="#ffe3de" stroke-width="1" width="488.976366" x="2235.826717" y="411.023612" /><text fill="black" font-family="Verdana" font-size="15" stroke="black" stroke-width="0" x="2239.370024" y="407.480305">task3</text><text fill="purple" font-family="Verdana" font-size="10" stroke="black" stroke-width="0" x="2239.370024" y="419.8818795">Ben</text></g><g id="task4"><rect fill="#ffe3de" height="28.346456" opacity="0.85" stroke="#ffe3de" stroke-width="2" width="170.078736" x="2661.023557" y="428.740147" /><rect fill="#909090" height="10.629921" opacity="0.2" stroke="#ffe3de" stroke-width="1" width="170.078736" x="2661.023557" y="446.456682" /><text fill="black" font-family="Verdana" font-size="15" stroke="black" stroke-width="0" x="2664.566864" y="442.913375">task4</text><text fill="purple" font-family="Verdana" font-size="10" stroke="black" stroke-width="0" x="2664.566864" y="455.3149495">Ben / Alex</text></g><g id="Milestone_1"><polygon fill="#FF3030" opacity="0.85" points="2746.062925,467.716524 2756.692846,478.346445 2746.062925,488.976366 2735.433004,478.346445" stroke="#FF3030" stroke-width="2" /><text fill="black" font-family="Verdana" font-size="15" stroke="black" stroke-width="0" x="2735.433004" y="478.346445">Milestone 1</text></g><g id="Milestone_2"><polygon fill="#FF3030" opacity="0.85" points="2923.228275,538.582664 2933.858196,549.212585 2923.228275,559.842506 2912.598354,549.212585" stroke="#FF3030" stroke-width="2" /><text fill="black" font-family="Verdana" font-size="15" stroke="black" stroke-width="0" x="2912.598354" y="549.212585">Milestone 2</text></g></g></g></g></g><g><g /><g><g><line stroke="black" stroke-dasharray="5,3" x1="2579.527496" x2="2746.062925" y1="336.614165" y2="336.614165" /><marker id="id13" markerHeight="10" markerWidth="10" refX="5" refY="5"><circle cx="5" cy="5" fill="#000000" opacity="0.5" r="5" stroke-width="0" /></marker><line marker-end="url(#id13)" stroke="black" stroke-dasharray="5,3" x1="2746.062925" x2="2746.062925" y1="336.614165" y2="460.62991" /><line stroke="black" stroke-dasharray="5,3" x1="2721.259776" x2="2746.062925" y1="407.480305" y2="407.480305" /><marker id="id14" markerHeight="10" markerWidth="10" refX="5" refY="5"><circle cx="5" cy="5" fill="#000000" opacity="0.5" r="5" stroke-width="0" /></marker><line marker-end="url(#id14)" stroke="black" stroke-dasharray="5,3" x1="2746.062925" x2="2746.062925" y1="407.480305" y2="460.62991" /></g><g><line stroke="black" stroke-dasharray="5,3" x1="2579.527496" x2="2923.228275" y1="336.614165" y2="336.614165" /><marker id="id15" markerHeight="10" markerWidth="10" refX="5" refY="5"><circle cx="5" cy="5" fill="#000000" opacity="0.5" r="5" stroke-width="0" /></marker><line marker-end="url(#id15)" stroke="black" stroke-dasharray="5,3" x1="2923.228275" x2="2923.228275" y1="336.614165" y2="531.49605" /><line stroke="black" stroke-dasharray="5,3" x1="2827.558986" x2="2923.228275" y1="442.913375" y2="442.913375" /><marker id="id16" markerHeight="10" markerWidth="10" refX="5" refY="5"><circle cx="5" cy="5" fill="#000000" opacity="0.5" r="5" stroke-width="0" /></marker><line marker-end="url(#id16)" stroke="black" stroke-dasharray="5,3" x1="2923.228275" x2="2923.228275" y1="442.913375" y2="531.49605" /></g></g></g></g></svg>