<?xml version="1.0" encoding="utf-8" ?>
<svg baseProfile="full" height="283.46456" version="1.1" width="2551.18104" xmlns="http://www.w3.org/2000/svg" xmlns:ev="http://www.w3.org/2001/xml-events" xmlns:xlink="http://www.w3.org/1999/xlink"><defs /><rect fill="white" height="283.46456" opacity="1" stroke-width="0" width="2551.18104" x="0.0" y="0.0" /><g><g id="vlines" stroke="lightgray"><line x1="0.0" x2="0.0" y1="70.86614" y2="248.03149000000002" /><text fill="black" font-family="Verdana" font-size="12" stroke="black" stroke-width="0" x="3.543307" y="67.322833">W 20</text><line x1="35.43307" x2="35.43307" y1="70.86614" y2="248.03149000000002" /><text fill="black" font-family="Verdana" font-size="12" stroke="black" stroke-width="0" x="38.976377" y="67.322833">T 21</text><line x1="70.86614" x2="70.86614" y1="70.86614" y2="248.03149000000002" /><text fill="black" font-family="Verdana" font-size="12" stroke="black" stroke-width="0" x="74.409447" y="67.322833">F 22</text><line x1="106.29921" x2="106.29921" y1="70.86614" y2="248.03149000000002" /><rect fill="gray" height="177.16535" opacity="0.7" stroke="lightgray" stroke-width="1" width="35.43307" x="106.29921" y="70.86614" /><text fill="black" font-family="Verdana" font-size="12" stroke="black" stroke-width="0" x="109.842517" y="67.322833">S 23</text><line x1="141.73228" x2="141.73228" y1="70.86614" y2="248.03149000000002" /><rect fill="gray" height="177.16535" opacity="0.7" stroke="lightgray" stroke-width="1" width="35.43307" x="141.73228" y="70.86614" /><text fill="black" font-family="Verdana" font-size="12" stroke="black" stroke-width="0" x="145.275587" y="67.322833">S 24</text><line x1="177.16535" x2="177.16535" y1="70.86614" y2="248.03149000000002" /><text fill="black" font-family="Verdana" font-size="12" stroke="black" stroke-width="0" x="180.708657" y="67.322833">M 25</text><text fill="black" font-family="Verdana" font-size="16" font-weight="bold" stroke="black" stroke-width="0" x="180.708657" y="53.149605">04</text><line x1="212.59842" x2="212.59842" y1="70.86614" y2="248.03149000000002" /><text fill="black" font-family="Verdana" font-size="12" stroke="black" stroke-width="0" x="216.141727" y="67.322833">T 26</text><line x1="248.03149000000002" x2="248.03149000000002" y1="70.86614" y2="248.03149000000002" /><rect fill="#76e9ff" height="177.16535" opacity="0.8" stroke="lightgray" stroke-width="0" width="7.086614000000001" x="262.204718" y="70.86614" /><text fill="black" font-family="Verdana" font-size="12" stroke="black" stroke-width="0" x="251.574797" y="67.322833">W 27</text><line x1="283.46456" x2="283.46456" y1="70.86614" y2="248.03149000000002" /><text fill="black" font-family="Verdana" font-size="12" stroke="black" stroke-width="0" x="287.007867" y="67.322833">T 28</text><line x1="318.89763" x2="318.89763" y1="70.86614" y2="248.03149000000002" /><text fill="black" font-family="Verdana" font-size="12" stroke="black" stroke-width="0" x="322.440937" y="67.322833">F 29</text><line x1="354.3307" x2="354.3307" y1="70.86614" y2="248.03149000000002" /><rect fill="gray" height="177.16535" opacity="0.7" stroke="lightgray" stroke-width="1" width="35.43307" x="354.3307" y="70.86614" /><text fill="black" font-family="Verdana" font-size="12" stroke="black" stroke-width="0" x="357.874007" y="67.322833">S 30</text><line x1="389.76377" x2="389.76377" y1="70.86614" y2="248.03149000000002" /><rect fill="gray" height="177.16535" opacity="0.7" stroke="lightgray" stroke-width="1" width="35.43307" x="389.76377" y="70.86614" /><text fill="black" font-family="Verdana" font-size="12" stroke="black" stroke-width="0" x="393.307077" y="67.322833">S 31</text><line x1="425.19684" x2="425.19684" y1="70.86614" y2="248.03149000000002" /><text fill="black" font-family="Verdana" font-size="12" stroke="black" stroke-width="0" x="428.740147" y="67.322833">M 01</text><text fill="#800000" font-family="Verdana" font-size="18" font-weight="bold" stroke="#800000" stroke-width="0" x="428.740147" y="35.43307">February</text><text fill="black" font-family="Verdana" font-size="16" font-weight="bold" stroke="black" stroke-width="0" x="428.740147" y="53.149605">05</text><line x1="460.62991" x2="460.62991" y1="70.86614" y2="248.03149000000002" /><text fill="black" font-family="Verdana" font-size="12" stroke="black" stroke-width="0" x="464.173217" y="67.322833">T 02</text><line x1="496.06298000000004" x2="496.06298000000004" y1="70.86614" y2="248.03149000000002" /><text fill="black" font-family="Verdana" font-size="12" stroke="black" stroke-width="0" x="499.606287" y="67.322833">W 03</text><line x1="531.49605" x2="531.49605" y1="70.86614" y2="248.03149000000002" /><text fill="black" font-family="Verdana" font-size="12" stroke="black" stroke-width="0" x="535.039357" y="67.322833">T 04</text><line x1="566.92912" x2="566.92912" y1="70.86614" y2="248.03149000000002" /><text fill="black" font-family="Verdana" font-size="12" stroke="black" stroke-width="0" x="570.472427" y="67.322833">F 05</text><line x1="602.36219" x2="602.36219" y1="70.86614" y2="248.03149000000002" /><rect fill="gray" height="177.16535" opacity="0.7" stroke="lightgray" stroke-width="1" width="35.43307" x="602.36219" y="70.86614" /><text fill="black" font-family="Verdana" font-size="12" stroke="black" stroke-width="0" x="605.905497" y="67.322833">S 06</text><line x1="637.79526" x2="637.79526" y1="70.86614" y2="248.03149000000002" /><rect fill="gray" height="177.16535" opacity="0.7" stroke="lightgray" stroke-width="1" width="35.43307" x="637.79526" y="70.86614" /><text fill="black" font-family="Verdana" font-size="12" stroke="black" stroke-width="0" x="641.338567" y="67.322833">S 07</text><line x1="673.22833" x2="673.22833" y1="70.86614" y2="248.03149000000002" /><text fill="black" font-family="Verdana" font-size="12" stroke="black" stroke-width="0" x="676.7716369999999" y="67.322833">M 08</text><text fill="black" font-family="Verdana" font-size="16" font-weight="bold" stroke="black" stroke-width="0" x="676.7716369999999" y="53.149605">06</text><line x1="708.6614" x2="708.6614" y1="70.86614" y2="248.03149000000002" /><text fill="black" font-family="Verdana" font-size="12" stroke="black" stroke-width="0" x="712.204707" y="67.322833">T 09</text><line x1="744.09447" x2="744.09447" y1="70.86614" y2="248.03149000000002" /><text fill="black" font-family="Verdana" font-size="12" stroke="black" stroke-width="0" x="747.637777" y="67.322833">W 10</text><line x1="779.52754" x2="779.52754" y1="70.86614" y2="248.03149000000002" /><text fill="black" font-family="Verdana" font-size="12" stroke="black" stroke-width="0" x="783.070847" y="67.322833">T 11</text><line x1="814.96061" x2="814.96061" y1="70.86614" y2="248.03149000000002" /><text fill="black" font-family="Verdana" font-size="12" stroke="black" stroke-width="0" x="818.503917" y="67.322833">F 12</text><line x1="850.39368" x2="850.39368" y1="70.86614" y2="248.03149000000002" /><rect fill="gray" height="177.16535" opacity="0.7" stroke="lightgray" stroke-width="1" width="35.43307" x="850.39368" y="70.86614" /><text fill="black" font-family="Verdana" font-size="12" stroke="black" stroke-width="0" x="853.936987" y="67.322833">S 13</text><line x1="885.8267500000001" x2="885.8267500000001" y1="70.86614" y2="248.03149000000002" /><rect fill="gray" height="177.16535" opacity="0.7" stroke="lightgray" stroke-width="1" width="35.43307" x="885.8267500000001" y="70.86614" /><text fill="black" font-family="Verdana" font-size="12" stroke="black" stroke-width="0" x="889.370057" y="67.322833">S 14</text><line x1="921.25982" x2="921.25982" y1="70.86614" y2="248.03149000000002" /><text fill="black" font-family="Verdana" font-size="12" stroke="black" stroke-width="0" x="924.803127" y="67.322833">M 15</text><text fill="black" font-family="Verdana" font-size="16" font-weight="bold" stroke="black" stroke-width="0" x="924.803127" y="53.149605">07</text><line x1="956.69289" x2="956.69289" y1="70.86614" y2="248.03149000000002" /><text fill="black" font-family="Verdana" font-size="12" stroke="black" stroke-width="0" x="960.236197" y="67.322833">T 16</text><line x1="992.1259600000001" x2="992.1259600000001" y1="70.86614" y2="248.03149000000002" /><text fill="black" font-family="Verdana" font-size="12" stroke="black" stroke-width="0" x="995.669267" y="67.322833">W 17</text><line x1="1027.5590300000001" x2="1027.5590300000001" y1="70.86614" y2="248.03149000000002" /><text fill="black" font-family="Verdana" font-size="12" stroke="black" stroke-width="0" x="1031.102337" y="67.322833">T 18</text><line x1="1062.9921" x2="1062.9921" y1="70.86614" y2="248.03149000000002" /><text fill="black" font-family="Verdana" font-size="12" stroke="black" stroke-width="0" x="1066.535407" y="67.322833">F 19</text><line x1="1098.42517" x2="1098.42517" y1="70.86614" y2="248.03149000000002" /><rect fill="gray" height="177.16535" opacity="0.7" stroke="lightgray" stroke-width="1" width="35.43307" x="1098.42517" y="70.86614" /><text fill="black" font-family="Verdana" font-size="12" stroke="black" stroke-width="0" x="1101.968477" y="67.322833">S 20</text><line x1="1133.85824" x2="1133.85824" y1="70.86614" y2="248.03149000000002" /><rect fill="gray" height="177.16535" opacity="0.7" stroke="lightgray" stroke-width="1" width="35.43307" x="1133.85824" y="70.86614" /><text fill="black" font-family="Verdana" font-size="12" stroke="black" stroke-width="0" x="1137.401547" y="67.322833">S 21</text><line x1="1169.29131" x2="1169.29131" y1="70.86614" y2="248.03149000000002" /><text fill="black" font-family="Verdana" font-size="12" stroke="black" stroke-width="0" x="1172.834617" y="67.322833">M 22</text><text fill="black" font-family="Verdana" font-size="16" font-weight="bold" stroke="black" stroke-width="0" x="1172.834617" y="53.149605">08</text><line x1="1204.72438" x2="1204.72438" y1="70.86614" y2="248.03149000000002" /><text fill="black" font-family="Verdana" font-size="12" stroke="black" stroke-width="0" x="1208.267687" y="67.322833">T 23</text><line x1="1240.15745" x2="1240.15745" y1="70.86614" y2="248.03149000000002" /><text fill="black" font-family="Verdana" font-size="12" stroke="black" stroke-width="0" x="1243.700757" y="67.322833">W 24</text><line x1="1275.59052" x2="1275.59052" y1="70.86614" y2="248.03149000000002" /><text fill="black" font-family="Verdana" font-size="12" stroke="black" stroke-width="0" x="1279.1338269999999" y="67.322833">T 25</text><line x1="1311.02359" x2="1311.02359" y1="70.86614" y2="248.03149000000002" /><text fill="black" font-family="Verdana" font-size="12" stroke="black" stroke-width="0" x="1314.566897" y="67.322833">F 26</text><line x1="1346.45666" x2="1346.45666" y1="70.86614" y2="248.03149000000002" /><rect fill="gray" height="177.16535" opacity="0.7" stroke="lightgray" stroke-width="1" width="35.43307" x="1346.45666" y="70.86614" /><text fill="black" font-family="Verdana" font-size="12" stroke="black" stroke-width="0" x="1349.999967" y="67.322833">S 27</text><line x1="1381.88973" x2="1381.88973" y1="70.86614" y2="248.03149000000002" /><rect fill="gray" height="177.16535" opacity="0.7" stroke="lightgray" stroke-width="1" width="35.43307" x="1381.88973" y="70.86614" /><text fill="black" font-family="Verdana" font-size="12" stroke="black" stroke-width="0" x="1385.433037" y="67.322833">S 28</text><line x1="1417.3228" x2="1417.3228" y1="70.86614" y2="248.03149000000002" /><text fill="black" font-family="Verdana" font-size="12" stroke="black" stroke-width="0" x="1420.866107" y="67.322833">M 01</text><text fill="#800000" font-family="Verdana" font-size="18" font-weight="bold" stroke="#800000" stroke-width="0" x="1420.866107" y="35.43307">March</text><text fill="black" font-family="Verdana" font-size="16" font-weight="bold" stroke="black" stroke-width="0" x="1420.866107" y="53.149605">09</text><line x1="1452.75587" x2="1452.75587" y1="70.86614" y2="248.03149000000002" /><text fill="black" font-family="Verdana" font-size="12" stroke="black" stroke-width="0" x="1456.299177" y="67.322833">T 02</text><line x1="1488.18894" x2="1488.18894" y1="70.86614" y2="248.03149000000002" /><text fill="black" font-family="Verdana" font-size="12" stroke="black" stroke-width="0" x="1491.732247" y="67.322833">W 03</text><line x1="1523.62201" x2="1523.62201" y1="70.86614" y2="248.03149000000002" /><text fill="black" font-family="Verdana" font-size="12" stroke="black" stroke-width="0" x="1527.165317" y="67.322833">T 04</text><line x1="1559.05508" x2="1559.05508" y1="70.86614" y2="248.03149000000002" /><text fill="black" font-family="Verdana" font-size="12" stroke="black" stroke-width="0" x="1562.598387" y="67.322833">F 05</text><line x1="1594.4881500000001" x2="1594.4881500000001" y1="70.86614" y2="248.03149000000002" /><rect fill="gray" height="177.16535" opacity="0.7" stroke="lightgray" stroke-width="1" width="35.43307" x="1594.4881500000001" y="70.86614" /><text fill="black" font-family="Verdana" font-size="12" stroke="black" stroke-width="0" x="1598.031457" y="67.322833">S 06</text><line x1="1629.92122" x2="1629.92122" y1="70.86614" y2="248.03149000000002" /><rect fill="gray" height="177.16535" opacity="0.7" stroke="lightgray" stroke-width="1" width="35.43307" x="1629.92122" y="70.86614" /><text fill="black" font-family="Verdana" font-size="12" stroke="black" stroke-width="0" x="1633.464527" y="67.322833">S 07</text><line x1="1665.35429" x2="1665.35429" y1="70.86614" y2="248.03149000000002" /><text fill="black" font-family="Verdana" font-size="12" stroke="black" stroke-width="0" x="1668.897597" y="67.322833">M 08</text><text fill="black" font-family="Verdana" font-size="16" font-weight="bold" stroke="black" stroke-width="0" x="1668.897597" y="53.149605">10</text><line x1="1700.78736" x2="1700.78736" y1="70.86614" y2="248.03149000000002" /><text fill="black" font-family="Verdana" font-size="12" stroke="black" stroke-width="0" x="1704.330667" y="67.322833">T 09</text><line x1="1736.22043" x2="1736.22043" y1="70.86614" y2="248.03149000000002" /><text fill="black" font-family="Verdana" font-size="12" stroke="black" stroke-width="0" x="1739.763737" y="67.322833">W 10</text><line x1="1771.6535000000001" x2="1771.6535000000001" y1="70.86614" y2="248.03149000000002" /><text fill="black" font-family="Verdana" font-size="12" stroke="black" stroke-width="0" x="1775.196807" y="67.322833">T 11</text><line x1="1807.08657" x2="1807.08657" y1="70.86614" y2="248.03149000000002" /><text fill="black" font-family="Verdana" font-size="12" stroke="black" stroke-width="0" x="1810.629877" y="67.322833">F 12</text><line x1="1842.51964" x2="1842.51964" y1="70.86614" y2="248.03149000000002" /><rect fill="gray" height="177.16535" opacity="0.7" stroke="lightgray" stroke-width="1" width="35.43307" x="1842.51964" y="70.86614" /><text fill="black" font-family="Verdana" font-size="12" stroke="black" stroke-width="0" x="1846.062947" y="67.322833">S 13</text><line x1="1877.95271" x2="1877.95271" y1="70.86614" y2="248.03149000000002" /><rect fill="gray" height="177.16535" opacity="0.7" stroke="lightgray" stroke-width="1" width="35.43307" x="1877.95271" y="70.86614" /><text fill="black" font-family="Verdana" font-size="12" stroke="black" stroke-width="0" x="1881.496017" y="67.322833">S 14</text><line x1="1913.38578" x2="1913.38578" y1="70.86614" y2="248.03149000000002" /><rect fill="gray" height="177.16535" opacity="0.7" stroke="lightgray" stroke-width="1" width="35.43307" x="1913.38578" y="70.86614" /><text fill="black" font-family="Verdana" font-size="12" stroke="black" stroke-width="0" x="1916.929087" y="67.322833">M 15</text><text fill="black" font-family="Verdana" font-size="16" font-weight="bold" stroke="black" stroke-width="0" x="1916.929087" y="53.149605">11</text><line x1="1948.81885" x2="1948.81885" y1="70.86614" y2="248.03149000000002" /><rect fill="gray" height="177.16535" opacity="0.7" stroke="lightgray" stroke-width="1" width="35.43307" x="1948.81885" y="70.86614" /><text fill="black" font-family="Verdana" font-size="12" stroke="black" stroke-width="0" x="1952.362157" y="67.322833">T 16</text><line x1="1984.2519200000002" x2="1984.2519200000002" y1="70.86614" y2="248.03149000000002" /><rect fill="gray" height="177.16535" opacity="0.7" stroke="lightgray" stroke-width="1" width="35.43307" x="1984.2519200000002" y="70.86614" /><text fill="black" font-family="Verdana" font-size="12" stroke="black" stroke-width="0" x="1987.795227" y="67.322833">W 17</text><line x1="2019.68499" x2="2019.68499" y1="70.86614" y2="248.03149000000002" /><rect fill="gray" height="177.16535" opacity="0.7" stroke="lightgray" stroke-width="1" width="35.43307" x="2019.68499" y="70.86614" /><text fill="black" font-family="Verdana" font-size="12" stroke="black" stroke-width="0" x="2023.2282969999999" y="67.322833">T 18</text><line x1="2055.1180600000002" x2="2055.1180600000002" y1="70.86614" y2="248.03149000000002" /><rect fill="gray" height="177.16535" opacity="0.7" stroke="lightgray" stroke-width="1" width="35.43307" x="2055.1180600000002" y="70.86614" /><text fill="black" font-family="Verdana" font-size="12" stroke="black" stroke-width="0" x="2058.661367" y="67.322833">F 19</text><line x1="2090.55113" x2="2090.55113" y1="70.86614" y2="248.03149000000002" /><rect fill="gray" height="177.16535" opacity="0.7" stroke="lightgray" stroke-width="1" width="35.43307" x="2090.55113" y="70.86614" /><text fill="black" font-family="Verdana" font-size="12" stroke="black" stroke-width="0" x="2094.094437" y="67.322833">S 20</text><line x1="2125.9842" x2="2125.9842" y1="70.86614" y2="248.03149000000002" /><rect fill="gray" height="177.16535" opacity="0.7" stroke="lightgray" stroke-width="1" width="35.43307" x="2125.9842" y="70.86614" /><text fill="black" font-family="Verdana" font-size="12" stroke="black" stroke-width="0" x="2129.527507" y="67.322833">S 21</text><line x1="2161.41727" x2="2161.41727" y1="70.86614" y2="248.03149000000002" /><text fill="black" font-family="Verdana" font-size="12" stroke="black" stroke-width="0" x="2164.960577" y="67.322833">M 22</text><text fill="black" font-family="Verdana" font-size="16" font-weight="bold" stroke="black" stroke-width="0" x="2164.960577" y="53.149605">12</text><line x1="2196.85034" x2="2196.85034" y1="70.86614" y2="248.03149000000002" /><text fill="black" font-family="Verdana" font-size="12" stroke="black" stroke-width="0" x="2200.393647" y="67.322833">T 23</text><line x1="2232.28341" x2="2232.28341" y1="70.86614" y2="248.03149000000002" /><text fill="black" font-family="Verdana" font-size="12" stroke="black" stroke-width="0" x="2235.826717" y="67.322833">W 24</text><line x1="2267.71648" x2="2267.71648" y1="70.86614" y2="248.03149000000002" /><text fill="black" font-family="Verdana" font-size="12" stroke="black" stroke-width="0" x="2271.259787" y="67.322833">T 25</text><line x1="2303.14955" x2="2303.14955" y1="70.86614" y2="248.03149000000002" /><text fill="black" font-family="Verdana" font-size="12" stroke="black" stroke-width="0" x="2306.692857" y="67.322833">F 26</text><line x1="2338.58262" x2="2338.58262" y1="70.86614" y2="248.03149000000002" /><rect fill="gray" height="177.16535" opacity="0.7" stroke="lightgray" stroke-width="1" width="35.43307" x="2338.58262" y="70.86614" /><text fill="black" font-family="Verdana" font-size="12" stroke="black" stroke-width="0" x="2342.125927" y="67.322833">S 27</text><line x1="2374.01569" x2="2374.01569" y1="70.86614" y2="248.03149000000002" /><rect fill="gray" height="177.16535" opacity="0.7" stroke="lightgray" stroke-width="1" width="35.43307" x="2374.01569" y="70.86614" /><text fill="black" font-family="Verdana" font-size="12" stroke="black" stroke-width="0" x="2377.558997" y="67.322833">S 28</text><line x1="2409.44876" x2="2409.44876" y1="70.86614" y2="248.03149000000002" /><text fill="black" font-family="Verdana" font-size="12" stroke="black" stroke-width="0" x="2412.992067" y="67.322833">M 29</text><text fill="black" font-family="Verdana" font-size="16" font-weight="bold" stroke="black" stroke-width="0" x="2412.992067" y="53.149605">13</text><line x1="2444.8818300000003" x2="2444.8818300000003" y1="70.86614" y2="248.03149000000002" /><text fill="black" font-family="Verdana" font-size="12" stroke="black" stroke-width="0" x="2448.425137" y="67.322833">T 30</text><line x1="2480.3149" x2="2480.3149" y1="70.86614" y2="248.03149000000002" /><text fill="black" font-family="Verdana" font-size="12" stroke="black" stroke-width="0" x="2483.8582069999998" y="67.322833">W 31</text><line x1="2515.74797" x2="2515.74797" y1="70.86614" y2="248.03149000000002" /><text fill="black" font-family="Verdana" font-size="12" stroke="black" stroke-width="0" x="2519.291277" y="67.322833">T 01</text><text fill="#800000" font-family="Verdana" font-size="18" font-weight="bold" stroke="#800000" stroke-width="0" x="2519.291277" y="35.43307">April</text><line x1="2551.18104" x2="2551.18104" y1="70.86614" y2="248.03149000000002" /></g><g id="hlines" stroke="lightgray"><line x1="0.0" x2="2551.18104" y1="70.86614" y2="70.86614" /><line x1="0.0" x2="2551.18104" y1="106.29921" y2="106.29921" /><line x1="0.0" x2="2551.18104" y1="141.73228" y2="141.73228" /><line x1="0.0" x2="2551.18104" y1="177.16535" y2="177.16535" /><line x1="0.0" x2="2551.18104" y1="212.59842" y2="212.59842" /><line x1="0.0" x2="2551.18104" y1="248.03149000000002" y2="248.03149000000002" /></g><line stroke="black" x1="0.0" x2="2551.18104" y1="70.86614" y2="70.86614" /><line stroke="black" x1="0.0" x2="2551.18104" y1="248.03149000000002" y2="248.03149000000002" /></g><g><g><text fill="black" font-family="Verdana" font-size="18" stroke="black" stroke-width="0" x="10.629921" y="95.669289">Project 1</text><rect fill="purple" height="155.90550800000003" opacity="0.5" stroke="lightgray" stroke-width="0" width="7.086614000000001" x="2.8346456" y="88.582675" /><g><g id="task1"><rect fill="#a3ddcb" height="28.346456" opacity="0.85" stroke="#a3ddcb" stroke-width="2" width="595.275576" x="251.574797" y="109.842517" /><rect fill="#909090" height="10.629921" opacity="0.2" stroke="#a3ddcb" stroke-width="1" width="595.275576" x="251.574797" y="127.559052" /><text fill="black" font-family="Verdana" font-size="15" stroke="black" stroke-width="0" x="255.118104" y="124.015745">task1</text><text fill="purple" font-family="Verdana" font-size="10" stroke="black" stroke-width="0" x="255.118104" y="136.4173195">Ben</text></g><g id="task2"><rect fill="#a3ddcb" height="28.346456" opacity="0.85" stroke="#a3ddcb" stroke-width="2" width="347.244086" x="747.637777" y="145.275587" /><rect fill="#909090" height="10.629921" opacity="0.2" stroke="#a3ddcb" stroke-width="1" width="347.244086" x="747.637777" y="162.992122" /><text fill="black" font-family="Verdana" font-size="15" stroke="black" stroke-width="0" x="751.1810839999999" y="159.448815">task2</text><text fill="purple" font-family="Verdana" font-size="10" stroke="black" stroke-width="0" x="751.1810839999999" y="171.8503895">Alex</text></g><g id="task3"><rect fill="#a3ddcb" height="28.346456" opacity="0.85" stroke="#a3ddcb" stroke-width="2" width="488.976366" x="1066.535407" y="180.708657" /><rect fill="#909090" height="10.629921" opacity="0.2" stroke="#a3ddcb" stroke-width="1" width="488.976366" x="1066.535407" y="198.425192" /><text fill="black" font-family="Verdana" font-size="15" stroke="black" stroke-width="0" x="1070.078714" y="194.881885">task3</text><text fill="purple" font-family="Verdana" font-size="10" stroke="black" stroke-width="0" x="1070.078714" y="207.2834595">Ben</text></g><g id="task4"><rect fill="#a3ddcb" height="28.346456" opacity="0.85" stroke="#a3ddcb" stroke-width="2" width="807.873996" x="1420.866107" y="216.141727" /><rect fill="#909090" height="10.629921" opacity="0.2" stroke="#a3ddcb" stroke-width="1" width="807.873996" x="1420.866107" y="233.858262" /><text fill="black" font-family="Verdana" font-size="15" stroke="black" stroke-width="0" x="1424.409414" y="230.314955">task4</text><text fill="purple" font-family="Verdana" font-size="10" stroke="black" stroke-width="0" x="1424.409414" y="242.7165295">Ben / Alex</text></g></g></g><g /></g></svg>